<?xml version="1.0" encoding="UTF-8"?>
<!DOCTYPE svg PUBLIC "-//W3C//DTD SVG 1.1//EN" "http://www.w3.org/Graphics/SVG/1.1/DTD/svg11.dtd">
<svg version="1.1" xmlns="http://www.w3.org/2000/svg" xmlns:xlink="http://www.w3.org/1999/xlink" x="0" y="0" width="571" height="602" viewBox="0, 0, 571, 602">
  <g id="layer1">
    <path d="M341.926,9.041 L311.944,61.055 L294.587,3.094 L268.345,81.626 L221.588,6.075 L213.798,97.257 L151.766,35.184 L161.614,94.577 L113.792,61.498 L138.088,148.48 L58.885,118.299 L108.548,186.192 L22.055,179.399 L87.938,223.369 L15.896,226.052 L88.22,268.678 L2.186,305.116 L84.039,323.055 L13.486,374.206 L89.252,374.438 L46.707,419.758 L117.12,407.643 L78.023,479.111 L152.566,441.062 L130.07,528.453 L195.687,473.032 L191.806,551.98 L238.281,494.213 L250.911,558.871 L281.192,492.64 L317.255,569.966 L331.774,489.78 L383.302,560.85 L380.969,462.069 L439.953,507.074 L424.249,450.089 L487.455,479.321 L455.358,421.944 L531.591,442.217 L487.431,364.986 L556.697,347.958 L488.926,313.812 L561.031,298.931 L509.75,279.746 L567.286,251.59 L488.389,218.913 L546.512,155.974 L467.357,166.559 L503.558,113.204 L450.91,132.47 L473.685,78.167 L400.249,116.234 L414.169,20.954 L349.218,88.652 z" fill="#FF0000" id="path4358-4"/>
    <path d="M293.473,36.591 L264.797,107.412 L226.429,34.951 L222.159,124.477 L163.521,64.706 L177.722,131.536 L141.862,98.263 L156.447,166.36 L92.484,141.842 L122.677,199.848 L70.783,195.95 L106.526,234.115 L62.524,239.146 L117.352,260.627 L47.595,301.389 L117.225,308.471 L56.75,363.321 L136.728,342.479 L85.513,395.198 L146.678,386.317 L117.412,430.634 L172.877,411.71 L156.903,483.658 L205.216,436.379 L202.792,518.492 L243.586,458.876 L249.278,527.657 L280.325,472.099 L297.744,526.535 L314.775,465.595 L352.519,528.185 L366.111,437.548 L425.931,483.116 L413.008,435.309 L470.512,463.932 L435.755,405.665 L512.244,428.262 L471.802,355.364 L531.248,345.344 L471.808,314.154 L528.508,292.201 L462.417,285.949 L541.699,250.882 L466.2,220.377 L512.191,175.569 L456.254,177.341 L478.238,133.253 L428.552,161.113 L447.466,100.308 L385.459,134.67 L395.058,55.145 L340.054,103.932 L334.134,43.118 L301.211,102.439 z" fill="#FFFF00" id="path4358"/>
    <path d="M308.193,106.058 L293.832,142.087 L277.825,106.45 L268.137,159.156 L232.058,114.848 L235.109,174.029 L190.575,139.724 L201.972,176.947 L168.93,159.977 L195.909,210.207 L139.27,201.292 L176.514,240.429 L121.384,243.757 L166.766,266.108 L121.575,274.23 L170.901,295.147 L119.836,326.165 L173.014,330.399 L132.996,369.479 L180.788,362.896 L157.921,395.747 L201.26,381.719 L182.85,431.037 L226.529,400.006 L219.977,458.063 L256.51,416.683 L260.958,467.669 L285.217,426.485 L298.827,466.838 L312.136,421.663 L341.627,468.061 L343.779,415.334 L382.476,456.344 L372.378,393.188 L413.499,416.815 L398.621,381.657 L441.027,394.792 L415.777,360.84 L465.615,367.07 L431.026,321.453 L473.212,304.377 L427.499,288.494 L471.663,272.542 L437.653,264.792 L471.472,241.619 L418.872,227.668 L450.023,182.132 L401.038,195.954 L419.204,158.513 L387.691,175.549 L397.308,138.692 L354.329,169.636 L354.785,107.281 L319.744,156.477 z" fill="#333333" id="path4358-8"/>
    <path d="M273.358,422.031 L369.181,392.378 L437.615,558.495 C432.001,594.645 384.631,604.239 311.579,597.499 z" fill="#FFE6D5" id="rect4138"/>
    <path d="M270.035,424.203 C294.34,392.355 337.127,400.084 372.486,400.032 L437.408,557.835 L411.126,522.72 C349.662,445.497 316.351,438.601 270.035,424.203 z" fill="#FFCCAA" id="rect4138-2"/>
    <path d="M298.903,418.925 C323.208,387.077 334.462,392.922 369.821,392.87 L409.778,493.661 C364.15,416.032 341.086,414.813 298.903,418.925 z" fill="#FFB380" id="rect4138-2-1"/>
    <path d="M395.578,301.441 C411.147,340.324 385.317,404.283 346.665,412.986 C330.429,416.642 324.918,409.073 313.788,411.15 C301.223,413.496 298.063,420.929 279.135,424.098 C241.576,430.386 210.988,387.068 203.571,347.33 C198.906,322.339 197.476,291.119 217,277.926 L280.597,234.95 L295.485,230.753 C331.486,220.605 384.649,274.146 395.578,301.441 z" fill="#FFE6D5" id="path4136-3"/>
    <path d="M221.474,312.688 C244.071,279.655 246.016,263.124 268.438,260.402 C294.187,257.276 284.144,203.115 292.59,206.031 C299.564,208.438 327.303,255.505 328.926,276.508 C330.036,290.873 308.252,278.15 301.537,289.594 C291.422,325.808 270.868,323.764 257.085,329.133 C227.608,348.053 219.828,357.845 201.396,332.477 C200.916,323.783 216.557,319.875 221.474,312.688 z" fill="#FFB380" id="rect4336"/>
    <path d="M186.958,264.202 L193.01,261.243 C200.832,257.417 212.544,259.5 216.051,267.47 L238.498,318.48 C242.006,326.45 239.106,335.679 231.284,339.505 L225.233,342.464 C217.411,346.29 208.062,343.058 204.208,335.25 L179.487,285.158 C175.633,277.35 179.136,268.027 186.958,264.202 z" fill="#FF7F2A" id="rect4157"/>
    <path d="M223.468,232.467 L229.625,229.735 C237.584,226.202 249.211,228.719 252.42,236.813 L272.958,288.621 C276.167,296.715 272.928,305.831 264.969,309.363 L258.812,312.096 C250.853,315.629 242.107,311.821 238.07,304.107 L212.195,254.667 C208.157,246.952 215.509,236 223.468,232.467 z" fill="#FF7F2A" id="rect4157-1"/>
    <path d="M259.829,200.594 L266.087,198.101 C274.176,194.878 285.697,197.841 288.592,206.053 L307.117,258.614 C310.011,266.827 306.422,275.81 298.333,279.033 L292.076,281.526 C283.986,284.749 275.394,280.608 271.657,272.743 L247.708,222.342 C243.971,214.478 251.74,203.817 259.829,200.594 z" fill="#FF7F2A" id="rect4157-4"/>
    <path d="M301.473,178.152 L307.863,176.018 C316.121,173.259 327.456,176.871 329.88,185.235 L345.392,238.762 C347.816,247.126 343.723,255.891 335.464,258.65 L329.075,260.784 C320.816,263.543 312.472,258.92 309.187,250.856 L288.138,199.177 C284.853,191.113 293.214,180.91 301.473,178.152 z" fill="#FF7F2A" id="rect4157-3"/>
    <path d="M189.127,259.905 L195.179,256.945 C203.001,253.12 214.713,255.203 218.22,263.173 L240.667,314.183 C244.175,322.153 241.275,331.382 233.453,335.207 L227.402,338.167 C219.58,341.992 210.698,338.512 206.377,330.953 L178.686,282.508 C174.365,274.948 181.305,263.73 189.127,259.905 z" fill="#FFE6D5" id="rect4157-8"/>
    <path d="M225.045,228.444 L231.202,225.711 C239.161,222.178 250.787,224.695 253.997,232.789 L274.535,284.597 C277.744,292.692 274.504,301.807 266.546,305.34 L260.389,308.072 C252.43,311.605 243.684,307.798 239.646,300.083 L213.772,250.644 C209.734,242.929 217.086,231.976 225.045,228.444 z" fill="#FFE6D5" id="rect4157-1-6"/>
    <path d="M261.082,194.779 L267.331,192.24 C275.409,188.957 286.964,192.098 289.915,200.615 L308.804,255.123 C311.755,263.64 308.22,272.912 300.142,276.195 L293.893,278.734 C285.815,282.017 277.185,277.675 273.392,269.513 L249.088,217.205 C245.295,209.043 253.004,198.062 261.082,194.779 z" fill="#FFE6D5" id="rect4157-4-4"/>
    <path d="M303.25,172.528 L309.639,170.393 C317.898,167.635 329.232,171.247 331.656,179.61 L347.168,233.138 C349.592,241.502 345.499,250.267 337.24,253.026 L330.851,255.16 C322.592,257.919 314.248,253.296 310.963,245.232 L289.914,193.553 C286.629,185.489 294.991,175.286 303.25,172.528 z" fill="#FFE6D5" id="rect4157-3-6"/>
    <path d="M388.807,336.598 C393.905,363.909 371.647,390.975 339.092,397.051 C306.538,403.127 283.203,407.652 270.917,358.603 C264.659,333.622 277.993,310.472 310.548,304.395 C343.102,298.319 383.71,309.288 388.807,336.598 z" fill="#FF7F2A" id="path4136-9"/>
    <path d="M398.488,334.412 C403.938,363.614 380.549,392.478 346.245,398.881 C311.942,405.284 279.715,386.801 274.264,357.599 C268.813,328.396 292.203,299.532 326.506,293.129 C360.81,286.727 393.037,305.209 398.488,334.412 z" fill="#FFE6D5" id="path4136"/>
    <path d="M356.037,239.423 C355.28,239.596 349.377,237.958 345.295,240.334 L288.734,271.85 C281.151,276.13 266.686,288.4 278.833,299.688 C285.503,312.08 296.4,322.007 322.742,314.127 C329.324,311.785 331.585,308.668 338.635,303.917 C338.328,312.263 338.97,318.296 343.984,330.674 C354.337,342.574 381.569,328.651 401.93,296.24 L374.697,261.199 C373.271,259.364 371.534,257.785 369.589,256.538 C365.276,250.656 356.037,239.423 356.037,239.423 z" fill="#FF7F2A" id="rect4157-9-5"/>
    <path d="M350.945,239.279 C350.188,239.452 349.449,239.732 348.738,240.134 L298.8,268.32 C291.217,272.6 272.696,285.171 277.674,292.315 C284.344,304.707 295.242,314.633 321.583,306.754 C328.165,304.412 335.2,299.947 342.25,295.196 C341.942,303.542 343.244,313.106 348.258,325.484 C365.829,350.059 420.563,341.47 398.152,287.072 L373.539,253.826 C372.156,251.958 370.375,250.411 368.43,249.165 C364.118,243.282 356.936,237.909 350.945,239.279 z" fill="#FFE6D5" id="rect4157-9"/>
  </g>
</svg>
