<?xml version="1.0" encoding="UTF-8" standalone="no"?>
<!-- Created with Inkscape (https://www.inkscape.org/) -->
<!-- ClipArt by Arvin61r58 (https://openclipart.org/user-detail/Arvin61r58) -->
<svg
   xmlns:dc="http://purl.org/dc/elements/1.1/"
   xmlns:cc="http://creativecommons.org/ns#"
   xmlns:rdf="http://www.w3.org/1999/02/22-rdf-syntax-ns#"
   xmlns:svg="http://www.w3.org/2000/svg"
   xmlns="http://www.w3.org/2000/svg"
   width="962.05621"
   height="643.80603"
   viewBox="0 0 254.54403 170.34035"
   version="1.1"
   id="svg857">
  <title
     id="title1180">BANG</title>
  <defs
     id="defs851" />
  <metadata
     id="metadata854">
    <rdf:RDF>
      <cc:Work
         rdf:about="">
        <dc:format>image/svg+xml</dc:format>
        <dc:type
           rdf:resource="http://purl.org/dc/dcmitype/StillImage" />
        <dc:title>BANG</dc:title>
        <cc:license
           rdf:resource="http://creativecommons.org/publicdomain/zero/1.0/" />
        <dc:creator>
          <cc:Agent>
            <dc:title>Arvin61r58</dc:title>
          </cc:Agent>
        </dc:creator>
        <dc:publisher>
          <cc:Agent>
            <dc:title>Openclipart.org</dc:title>
          </cc:Agent>
        </dc:publisher>
        <dc:identifier>https://openclipart.org/</dc:identifier>
        <dc:source>https://openclipart.org/user-detail/Arvin61r58</dc:source>
        <dc:description>BANG typography, word art</dc:description>
        <dc:subject>
          <rdf:Bag>
            <rdf:li>bang</rdf:li>
            <rdf:li>boom</rdf:li>
            <rdf:li>cartoon</rdf:li>
            <rdf:li>explode</rdf:li>
            <rdf:li>explosion</rdf:li>
            <rdf:li>gun</rdf:li>
            <rdf:li>onomatopoeia</rdf:li>
            <rdf:li>sound</rdf:li>
            <rdf:li>sound effect</rdf:li>
            <rdf:li>text</rdf:li>
            <rdf:li>text art</rdf:li>
            <rdf:li>typography</rdf:li>
            <rdf:li>word</rdf:li>
            <rdf:li>word art</rdf:li>
          </rdf:Bag>
        </dc:subject>
      </cc:Work>
      <cc:License
         rdf:about="http://creativecommons.org/publicdomain/zero/1.0/">
        <cc:permits
           rdf:resource="http://creativecommons.org/ns#Reproduction" />
        <cc:permits
           rdf:resource="http://creativecommons.org/ns#Distribution" />
        <cc:permits
           rdf:resource="http://creativecommons.org/ns#DerivativeWorks" />
      </cc:License>
    </rdf:RDF>
  </metadata>
  <g
     id="g1225">
    <title
       id="title1227">Bang  --  by Arvin61r58</title>
    <g
       transform="matrix(1,0,0,0.86964981,36.456365,-4.504478)"
       id="g1499"
       style="stroke-width:1.07232845">
      <path
         d="m 216.76466,127.02357 c -0.0564,0.17417 -44.76417,10.23215 -44.87755,10.38921 -0.11339,0.15707 22.2784,26.18534 22.11572,26.31459 -0.1626,0.12925 -50.57003,-12.10341 -50.77082,-12.01079 -0.20078,0.0926 -16.26365,31.47696 -16.48891,31.52665 -0.22526,0.0497 -33.957818,-9.23608 -34.192198,-9.23272 -0.23439,0.003 -32.738977,25.56339 -32.966511,25.52021 -0.227533,-0.0432 -13.366498,-34.26733 -13.571675,-34.35413 -0.205177,-0.0868 -48.1217327,11.52312 -48.2905734,11.39862 -0.1688382,-0.12449 13.8783004,-36.70797 13.7573084,-36.86168 -0.120995,-0.15371 -32.489888,-7.00704 -32.554792,-7.17947 -0.06491,-0.17244 19.2839854,-27.9105 19.2795955,-28.08992 -0.0044,-0.17942 -33.3940525,-11.653241 -33.3376315,-11.827421 0.05642,-0.17417 44.7641977,-23.64084 44.8775877,-23.7979 0.113384,-0.15707 12.5367943,-39.594035 12.6994233,-39.723282 0.16263,-0.129247 20.362773,13.380432 20.56356,13.287809 0.200783,-0.09262 23.431477,-34.669511 23.656736,-34.719193 0.225262,-0.04969 20.13415,42.438549 20.368534,42.435185 0.234384,-0.0031 34.786926,-43.441645 35.014456,-43.398454 0.22753,0.0432 13.3665,34.267325 13.57168,34.35412 0.20517,0.0868 34.29806,-8.330561 34.46689,-8.206072 0.16884,0.124493 -0.0546,33.515437 0.0664,33.669137 0.12099,0.1537 45.28959,8.92256 45.35447,9.09501 0.0649,0.17243 -32.08367,25.994961 -32.07928,26.174381 0.004,0.17943 33.39406,25.06193 33.3376,25.23611 z"
         id="path2994"
         style="fill:#f30000;stroke:none;stroke-width:0.27381814" />
      <path
         d="m 201.18433,101.14411 c -0.0443,-0.1334 -51.34606,-18.287751 -51.43503,-18.408051 -0.089,-0.12029 34.42092,-30.506206 34.29332,-30.605196 -0.12764,-0.099 -56.62302,19.720946 -56.78058,19.650006 -0.15757,-0.071 -12.763,-24.108026 -12.93978,-24.14608 -0.17677,-0.03803 -26.648611,7.073863 -26.832542,7.071281 C 87.305786,54.70377 61.79761,35.127219 61.61905,35.160297 61.440491,35.193387 51.129609,61.405442 50.968596,61.471923 50.807581,61.538393 -1.2104156,42.195428 -1.3429126,42.290778 c -0.132499,0.09535 25.3062646,38.565431 25.2113096,38.683151 -0.09495,0.11772 -32.869263,-4.40254 -32.9201966,-4.27046 -0.050936,0.13206 22.5058506,31.145661 22.5024076,31.283091 -0.0036,0.13741 -15.6080385,8.92514 -15.5637587,9.05854 0.044275,0.1334 24.5308297,18.10638 24.6198087,18.22668 0.08898,0.12029 1.549601,43.65887 1.677222,43.75787 0.127628,0.099 24.268541,-23.58204 24.426111,-23.5111 0.157566,0.0709 28.986147,26.55318 29.162919,26.59123 0.176776,0.038 5.202252,-32.50344 5.386186,-32.50087 12.932426,8.38568 25.067224,22.84207 37.667474,31.06266 0.16101,-0.0665 14.01352,-29.82315 14.14601,-29.91849 0.1325,-0.0953 25.30054,27.77394 25.39549,27.65622 0.095,-0.11772 -10.99842,-50.50777 -10.94748,-50.63983 0.0509,-0.13207 9.38131,-17.61076 9.38476,-17.74819 0.004,-0.13742 42.42326,-8.74377 42.37898,-8.87717 z"
         id="path2989"
         style="fill:#f37100;stroke:none;stroke-width:0.27381814" />
      <path
         d="m 60.442051,146.64711 c -0.123852,-0.0481 -20.649063,9.45325 -20.750981,9.38426 -0.101924,-0.069 9.544422,-21.45813 9.471388,-21.54332 -0.07304,-0.0852 -33.110624,2.10842 -33.149806,2.01284 -0.03917,-0.0956 15.572056,-23.41863 15.569401,-23.51808 -0.0026,-0.0995 -30.96999734,-12.09006 -30.93593534,-12.18661 0.03407,-0.0965 37.83368634,-7.473631 37.90213534,-7.560691 0.06844,-0.0871 -9.086822,-20.41923 -8.988654,-20.49087 0.09817,-0.0717 28.946936,5.88889 29.068138,5.83756 0.121212,-0.0513 5.525567,-13.78626 5.66155,-13.8138 0.135973,-0.0276 22.009472,8.18267 22.150963,8.18081 0.141488,-0.002 39.8217,-22.098269 39.95903,-22.074331 0.13737,0.02396 -11.98973,26.922901 -11.86586,26.971011 0.12384,0.0481 31.22281,5.31968 31.32471,5.38868 0.10194,0.069 -10.55145,8.64042 -10.47841,8.72562 0.0731,0.0852 27.33946,9.942551 27.37865,10.038141 0.0392,0.0956 -33.46591,8.54341 -33.46328,8.64286 0.003,0.0995 34.25693,14.76095 34.22286,14.8575 -0.0341,0.0966 -27.02228,5.67173 -27.09074,5.7588 -0.0684,0.0871 6.56928,14.5535 6.4711,14.62515 -0.0982,0.0716 -26.42937,-0.0232 -26.55058,0.0281 -0.12121,0.0513 -7.03608,19.21748 -7.17209,19.245 -0.13597,0.0275 -20.498913,-13.61387 -20.640401,-13.61201 -0.141489,0.002 -21.925451,23.90015 -22.062803,23.87627 -0.137351,-0.0239 -5.906522,-28.72478 -6.030385,-28.77289 z"
         id="path2992"
         style="fill:#f3f300;stroke:none;stroke-width:0.27381814" />
    </g>
    <g
       id="g1157"
       transform="translate(31.629929,137.3925)">
      <path
         d="m 9.5133424,-95.577586 0.7579206,0.754142 -0.7579206,0.790052 H 9.1688329 l -0.7579211,-0.790052 z m 5.5810546,3.483414 h 1.860352 l 1.860351,2.334245 q -3.720703,3.088386 -4.823133,3.088386 l -0.378961,-1.149167 q 0.275608,-4.273464 1.481391,-4.273464 z m -3.720703,1.544193 h 0.378961 q 0.757921,0 0.757921,1.149166 -0.620118,1.759662 -2.239313,2.729272 -0.7579206,0 -0.7579206,-1.149167 1.2746856,-2.729271 1.8603516,-2.729271 z m -13.3669707,3.088386 h 0.3789606 q 2.7905273,0.50276 2.9627822,1.580104 -0.2411568,5.422632 -1.10243065,5.422632 l -1.48139115,-1.185078 -0.3789604,0.395026 h -0.3789606 q -0.72347,-0.03591 -2.2393121,-3.878439 z m 37.1725807,0.790052 0.378961,0.395026 v 0.754141 h -1.102431 v -0.359115 z m -1.756999,1.795574 0.103353,-0.395026 1.722548,-0.71823 -0.275608,-0.466849 0.103353,-0.359114 0.895725,-0.574585 -0.206706,-2.046954 1.722548,-0.718228 0.344509,0.07183 q 0.723471,0.21547 0.551215,5.386721 -0.585665,-0.143646 -2.20486,2.585625 l -2.377117,0.143647 z m -22.772082,4.41711 7.062447,0.395026 h 0.723469 l 8.199328,-0.395026 q 13.745931,1.041433 13.745931,6.571799 0.757921,0 0.757921,1.939219 3.445096,0 4.099664,6.212685 l -4.857585,4.273465 -0.72347,2.69336 v 0.790052 q 0,2.262423 4.823134,9.301071 l -0.378961,1.939219 0.378961,5.027606 q -1.067979,0 -2.239312,6.212684 -1.378038,1.149167 -7.785916,3.483412 l -0.378961,1.149168 0.378961,1.939219 q -0.585666,0.03591 -2.618273,3.483413 -1.481391,0 -1.860351,-3.088386 h -0.378961 v 0.75414 h -0.72347 l -1.136881,-1.903308 h 0.37896 l -0.37896,-1.544193 h -5.202094 l -2.962783,-0.790053 -2.239312,0.790053 h -2.583821 l -3.376194,-0.395026 -2.9627822,1.149167 q -2.5493706,-1.077344 -3.3417427,-2.69336 v -0.395027 q 0.4478625,-5.027605 3.7207032,-5.027605 l 5.2020947,0.754141 1.860351,-1.149167 -0.757921,-10.48615 0.378961,-10.450237 0.37896,-0.395026 v -0.395027 l -0.757921,-3.088386 0.378961,-1.939219 -0.378961,-3.088387 0.757921,-2.334245 -1.481391,-1.93922 -1.860351,0.395027 -1.860353,-0.395027 -2.2393112,0.395027 H 8.0319513 q -3.3417426,0 -3.3417426,-3.124298 0,-3.232033 5.9600143,-4.63258 z m 10.404189,8.115992 v 6.607711 q 0,4.41711 2.239312,5.817658 h 2.962783 q 9.301758,-1.185079 9.301758,-5.422632 h -0.378961 q -5.202094,-0.897787 -5.202094,-1.939219 l 0.757921,-0.790052 h 0.344509 l 4.478625,1.544193 v -1.93922 l 0.378959,-0.359115 q -0.964626,-4.273465 -7.062445,-4.273465 h -4.478624 l -1.481391,-0.395026 q -1.860352,0.502761 -1.860352,1.149167 z M 8.7898723,-66.13018 h 0.7234701 l 1.1368806,1.185079 v 1.544193 l -2.2393112,3.483412 h -1.481391 l -0.757921,-0.790053 v -0.75414 q 2.9972331,0 2.9972331,-2.729272 -1.5158422,0 -1.5158422,-0.75414 z m 3.7207037,8.151903 0.72347,1.149167 q -0.654568,1.759662 -2.583823,3.124298 H 9.5133424 l -0.7234701,-0.790052 v -0.790052 q 2.0670567,-2.693361 3.7207037,-2.693361 z m 8.164875,18.207115 q 0,1.041433 1.860353,1.93922 l 3.341742,-0.395027 0.378961,0.395027 h 0.37896 l 4.444173,-1.149167 0.37896,0.395026 h 0.378961 q 5.581055,-1.975131 5.581055,-10.091123 -2.446018,-5.027606 -5.202094,-5.027606 l -3.720703,0.359115 q -0.378961,-1.149167 -2.239312,-1.149167 h -3.341743 q -1.343587,0 -1.860352,12.030342 z m 37.930502,-7.361851 h 0.37896 l 0.757922,0.790052 v 0.359115 l -0.757922,0.790052 h -1.10243 v -1.149167 z m -3.341742,14.723702 h 1.136881 l 0.72347,0.790053 v 0.395026 l -0.72347,0.754141 h -0.757921 l -1.10243,-1.149167 z m -13.470324,10.342503 h 0.378961 l 1.860351,2.729272 v 1.544194 q 0,0.790052 -2.997233,0.790052 l -1.10243,1.544193 q -0.378961,-1.939219 -2.239312,-1.939219 l -0.723471,-1.185079 v -1.544193 q 0.551216,-1.93922 4.823134,-1.93922 z M 31.4586,-17.829254 v 0.359114 h 0.378961 l 1.481391,-0.75414 1.102431,0.395026 -1.102431,-1.185079 h -0.75792 z m 17.501086,3.627059 0.34451,0.395026 v 0.395026 l -0.34451,0.395026 h -0.37896 l -0.378961,-0.395026 v -0.395026 l 0.378961,-0.395026 z"
         style="font-style:normal;font-variant:normal;font-weight:normal;font-stretch:normal;font-size:72.03559875px;line-height:1;font-family:'junko\'s typewriter';-inkscape-font-specification:'junko\'s typewriter';font-variant-ligatures:normal;font-variant-caps:normal;font-variant-numeric:normal;font-feature-settings:normal;text-align:start;writing-mode:lr-tb;text-anchor:start;fill:#410000;fill-opacity:1;stroke:none;stroke-width:0.26458332;stroke-linecap:square;stroke-linejoin:miter;stroke-miterlimit:4;stroke-dasharray:none;stroke-dashoffset:0;stroke-opacity:1;paint-order:fill markers stroke"
         id="path893" />
      <path
         id="path895"
         transform="scale(0.26458333)"
         d="m 281.5293,-296.22461 c -11.37153,0 -19.66276,4.97627 -24.8711,14.92969 -2.08333,22.53091 -5.68511,43.02726 -10.80664,61.48633 l -7.8125,18.32226 c -1.47082,12.7353 -3.0056,23.667 -4.59961,32.92188 -0.25041,-0.42373 -0.58123,-0.68115 -1,-0.75391 l -1.5625,1.08594 c 0,-1.08583 -0.34657,-1.62891 -1.04101,-1.62891 l -1.04102,1.08594 v 0.54297 l 0.51953,2.17187 c -0.43402,2.5336 -1.12717,3.80078 -2.08203,3.80078 v -1.08593 l -2.08398,2.17187 v 0.54297 h 1.5625 v 1.62891 h -1.5625 v 2.71289 h 2.60351 l 1.5625,-1.62891 v -3.25586 h 1.04297 l 1.04102,1.08594 c 0.16838,0 0.31827,-0.0153 0.47656,-0.0234 -3.81611,18.98651 -7.96698,28.52539 -12.45508,28.52539 -16.49306,0 -24.74023,6.10867 -24.74023,18.32422 0,6.60545 4.64344,11.58172 13.93164,14.929689 l 18.62109,-1.628907 27.86328,1.628907 c 6.68403,0 12.89193,-3.348989 18.6211,-10.044919 h 1.5625 c 4.21341,1.73577 7.73973,3.33093 10.72851,4.81445 l -2.00586,1.56641 -0.51953,-0.54297 h -0.52148 l -0.52149,0.54297 c 5.29514,5.972045 9.2895,9.952676 11.98047,11.943356 h 0.51953 v -0.542969 l -3.125,-3.257813 h 0.52149 l 2.08398,1.628907 v -0.542969 l -1.5625,-1.628906 2.67383,-3.1875 c 0.98664,0.982234 1.49219,1.865526 1.49219,2.644531 4.86111,-2.262141 15.19162,-3.935656 30.99023,-5.021485 l 12.36914,5.021485 c 8.76736,0 14.97331,-6.106707 18.61914,-18.322267 0,-4.07185 -2.08333,-9.09436 -6.25,-15.0664 -12.76041,0 -21.00564,-2.2166 -24.73828,-6.6504 -1.04167,-11.85361 -4.6875,-29.58834 -10.9375,-53.20507 v -11.67383 l -9.24609,-13.30078 1.5625,-13.30078 -12.36914,-26.60352 c -3.29861,-28.77442 -8.46289,-43.16211 -15.49414,-43.16211 z m -55.85938,39.49805 -1.04297,1.08594 h -1.04101 l -0.52149,-0.54297 v 2.71289 l 7.8125,-1.08399 c -0.17361,-0.72388 -1.04101,-1.44799 -2.60351,-2.17187 h -0.52149 l -0.51953,0.54297 z m -6.77148,1.08594 c -0.86806,2.17165 -1.73546,3.25585 -2.60352,3.25585 v 3.25782 c 1.5625,2.53359 2.95074,3.80078 4.16602,3.80078 l 3.125,-0.54297 3.64648,1.08594 h 0.51953 l 0.52149,-0.54297 c 0,-1.44777 0.34657,-2.17188 1.04101,-2.17188 v 2.17188 c 0.86806,0 2.08399,-0.72411 3.64649,-2.17188 l -0.52149,-2.17187 v -0.54297 l 0.52149,-0.54297 -2.60352,-1.62891 -2.08398,0.54297 h -0.52149 l -0.51953,-0.54297 h -0.52148 l -0.52149,0.54297 0.52149,1.62891 -1.04102,1.62891 h -0.52148 l -0.52149,-0.54297 v -0.54297 l 0.52149,-0.54297 v -1.08594 l -1.04102,-1.08594 h -3.64648 l -0.52149,0.54297 0.52149,-1.6289 -1.04102,-2.16992 z m 13.54101,0 v 1.6289 h 1.5625 v -1.6289 z m -44.79101,3.25585 -1.04102,1.08594 v 1.62891 l 2.08203,2.17187 1.04297,-1.08593 v -2.71485 l -1.04297,-1.08594 z m 31.77148,2.17188 1.04102,1.08594 v 0.54297 l -2.08399,-0.54297 z m 54.29688,0.54297 h 1.5625 l 3.125,3.25781 v 5.02149 l -6.25,-1.62891 z m -91.27735,0.54297 -0.51953,1.6289 h 0.51953 l 0.52149,0.54297 h 1.04101 l 0.52149,-0.54297 -0.52149,-1.6289 z m -114.062497,1.6289 -0.519531,0.54297 1.5625,8.14453 h 2.082031 c 0.520834,0 1.041666,-0.7241 1.5625,-2.17187 l -2.082031,-5.42969 0.519531,-0.54297 -2.603515,-0.54297 z m 116.146487,2.17188 -1.5625,1.6289 v 1.08594 h 2.08398 l 0.51953,-1.6289 z m -6.77149,0.54297 v 2.17187 h 2.08399 l 1.04101,-1.08594 -1.04101,-1.08593 z m 47.91797,0.54297 -1.04297,1.08593 v 0.54297 h 0.52149 l 1.04101,-1.08594 v -0.54296 z m 1.04102,0.54296 v 1.08594 h 1.5625 v -1.08594 z m -160.937502,3.25782 -1.041016,1.08593 v 0.54297 l 1.041016,1.08594 1.041015,-1.08594 v -1.6289 z m 97.396482,3.25781 v 2.71289 h 2.08203 v -2.71289 z m 20.3125,5.9707 -1.04297,1.08594 v 1.08594 h 2.60547 v -1.08594 l -1.04297,-1.08594 z m 5.72852,0 c -1.73612,0.45243 -2.60352,0.99551 -2.60352,1.62891 v 1.62891 l 2.60352,0.54296 h 0.52148 v -3.25781 z m 2.08398,0.54297 -0.52148,0.54297 v 0.54297 l 0.52148,0.54297 v 0.54297 l -0.52148,0.54297 h 3.125 l 1.04101,-1.08594 -1.5625,-1.62891 z m -129.687498,3.80078 v 2.17188 l 2.082031,0.54297 c 0,-0.72389 0.520835,-1.08594 1.5625,-1.08594 l -1.5625,-1.62891 z m 129.166018,3.80078 v 0.54297 l 1.04101,1.08594 h 1.04297 v -0.54297 l -1.04297,-1.08594 z m 84.50586,1.62891 h 6.25 l 1.99218,2.19727 c -0.18667,0.34679 -0.37275,0.68354 -0.56054,1.06054 0.69444,1.44777 1.73611,2.17188 3.125,2.17188 v 8.14258 c 0,-1.80972 -0.86741,-2.71485 -2.60352,-2.71485 l -0.52148,2.71485 c 0.95486,2.53359 1.99653,3.80078 3.125,3.80078 v 2.57812 l -1.5625,8.2793 c 3.125,2.53359 4.6875,6.42566 4.6875,11.67383 -0.43403,2.26214 -2.99414,4.47873 -7.68164,6.65039 -13.45486,-0.81437 -20.1836,-2.48789 -20.1836,-5.02149 v -4.88672 l 4.6875,-5.02148 c 1.38889,-21.08314 4.47179,-31.625 9.2461,-31.625 z m -161.58985,2.17188 v 1.08593 c 1.38889,2.17166 3.29992,3.25586 5.73047,3.25586 h 0.51953 l 0.52149,-0.54297 v 1.62891 h 1.5625 c 0.86805,0 1.73546,-1.44626 2.60351,-4.3418 v -0.54297 l -3.125,1.62891 -0.51953,-1.62891 v -0.54296 c -1.99653,0 -3.73329,0.54308 -5.20898,1.6289 v -1.6289 z m 84.89649,1.08593 -1.04102,1.08594 v 1.62695 l 2.08203,2.17188 h 1.04297 l 1.5625,-1.08594 h 2.60352 l 0.52148,0.54297 v 0.54297 l -0.52148,0.54297 c -1.73612,0 -3.29861,0.54308 -4.6875,1.6289 v -0.54297 h -0.52149 l -0.51953,0.54297 c -0.69444,0 -1.04297,-0.7241 -1.04297,-2.17187 h -1.5625 v 1.6289 c 0.95486,0 1.82422,1.08616 2.60547,3.25782 l 1.5625,-0.54297 h 0.51953 l -1.04101,3.25781 1.5625,1.62891 c 1.38889,0 2.08398,-1.26719 2.08398,-3.80078 h 0.51953 c 0.17361,1.44777 0.69445,2.17187 1.5625,2.17187 h 0.52149 c 0,-0.81437 1.90907,-1.90053 5.72851,-3.25781 v -1.62891 l -2.08203,-2.17187 -3.125,1.08593 -1.04297,-4.88476 c -3.47222,0 -5.20703,-0.54308 -5.20703,-1.62891 z m -73.4375,0.54297 -0.52149,0.54297 -0.51953,2.16992 -1.04297,1.08594 v 1.08594 h 2.60547 c 1.30209,-0.72389 2.16949,-1.80809 2.60352,-3.25586 l -2.08399,-1.62891 z m 157.8125,1.62891 v 2.71289 h 1.04101 l 1.04297,-1.08594 v -0.54297 l -1.04297,-1.08398 z m -136.97852,7.05664 -1.04297,1.08594 1.04297,1.08593 h 1.5625 v -2.17187 z m 64.0625,2.17187 v 1.62891 c 0,2.5336 1.38824,3.80078 4.16602,3.80078 v -0.54297 l 0.52148,-0.54297 v -0.54297 c -1.38889,0 -2.08398,-0.36205 -2.08398,-1.08593 v -0.54297 h 1.04101 c -0.52083,-1.44777 -1.73481,-2.17188 -3.64453,-2.17188 z m -139.583982,2.71485 -1.041016,1.08593 v 1.62891 h 2.603516 v -2.71484 z m 212.500002,0 v 1.6289 h 1.5625 v -0.54297 l -1.04102,-1.08593 z m -99.47852,8.68554 -3.64648,1.62891 v 1.62891 l 1.04101,1.6289 c 1.64931,0 3.21181,-1.44821 4.6875,-4.34375 h -0.51953 l -0.52148,-0.54297 z m -9.375,2.71485 c 0,0.72388 -0.52084,1.08594 -1.5625,1.08594 0,1.80971 2.08334,2.89586 6.25,3.25781 l 1.04102,-1.08594 c 0,-2.17165 -1.21593,-3.25781 -3.64649,-3.25781 z m -14.58398,8.14453 c -2.77778,0 -4.51454,1.81026 -5.20899,5.42969 0,0.63339 1.04167,1.17648 3.125,1.6289 l 1.04297,-1.6289 c 2.08333,-1.35729 3.125,-2.44345 3.125,-3.25782 0,-1.44777 -0.52083,-2.17187 -1.5625,-2.17187 z m -0.52149,2.71484 -0.51953,1.62891 h -1.04297 v -1.08594 z m -91.666012,6.51367 -3.646485,3.25782 v 1.6289 l 1.042969,1.08594 h 0.519531 l 4.167969,-3.25781 v -1.62891 l -1.042969,-1.08594 z m 19.791015,4.88672 -1.5625,1.62891 1.042969,1.08594 h 2.082031 l 0.521485,-0.54297 -0.521485,-2.17188 z m 32.292967,0 -1.04297,1.08594 1.04297,1.08594 h 1.5625 l 1.04102,-1.08594 -1.04102,-1.08594 z m -2.60547,1.62891 c -0.69444,0 -1.04101,0.72411 -1.04101,2.17187 l -3.125,-0.54296 c -0.52084,0 -1.04167,0.7241 -1.5625,2.17187 0.52083,1.80971 1.04166,2.71484 1.5625,2.71484 l 1.5625,-1.08593 h 1.04101 v 2.17187 l 5.20899,3.79883 h 0.52148 l 1.04102,-1.08398 v -1.08594 h -2.08399 v -1.08594 h 1.04297 l 1.5625,1.08594 1.04102,-1.08594 c -0.69445,-1.80971 -1.91037,-2.71484 -3.64649,-2.71484 v -0.54297 c 1.38889,0 2.08399,-0.54308 2.08399,-1.62891 v -0.54297 l -0.52149,-0.54297 -3.125,1.08594 v -0.54297 h -1.04101 v -0.54297 l 0.52148,-0.54296 v -0.54297 z m 108.33399,2.71484 v 2.71485 h 1.04101 l 1.04297,-1.08594 v -0.54297 l -1.04297,-1.08594 z m -107.8125,2.71485 h 2.08398 v 0.54297 h -2.08398 z m 24.47851,5.42773 -4.16601,1.62891 c 0,1.90019 0.69509,3.16738 2.08398,3.80078 h 2.60352 c 1.04166,0 1.90907,-1.81026 2.60351,-5.42969 z m 5.73047,0.54297 v 0.54297 c -1.73611,1.44777 -2.60547,2.53393 -2.60547,3.25781 v 0.54297 l 0.52149,0.54297 c 1.73611,-0.36194 3.12435,-1.4481 4.16601,-3.25781 v -1.62891 z m 208.43555,1.19922 c -0.56695,0.0608 -1.03537,0.24971 -1.4043,0.5664 l -1.17187,0.94922 -1.4336,5.70118 c 16.23265,13.21089 25.47745,18.86699 27.73438,16.96679 l 1.17187,-0.95117 1.5625,-5.70117 c -13.67189,-12.11376 -22.49034,-17.95682 -26.45898,-17.53125 z m -167.81055,0.97266 -1.5625,2.17187 c 0.43403,0 0.7806,1.08616 1.04102,3.25781 1.04167,0 1.5625,0.36206 1.5625,1.08594 h 0.52148 l 0.51953,-0.54297 v 1.08594 c 1.38889,0.54291 2.08399,1.08599 2.08399,1.62891 l 1.5625,-1.62891 v -0.54297 l -1.5625,1.08594 v -1.62891 l -0.52149,0.54297 h -0.51953 v -0.54297 l 0.51953,-0.54297 1.5625,0.54297 1.5625,-0.54297 v -1.6289 h -1.04101 l -3.64649,-1.62891 c 0,-1.44777 -0.69314,-2.17187 -2.08203,-2.17187 z m 77.86328,2.0371 h 9.2461 c 16.57986,0 24.86914,5.51935 24.86914,16.5586 v 1.6289 l -4.6875,-1.6289 c -3.125,0 -4.6875,2.75968 -4.6875,8.2793 l -7.68164,-1.62891 -6.50977,1.76758 -0.39258,-0.41016 1.5625,-2.17187 h -0.51953 l -1.04297,1.08593 -1.5625,-0.54297 v -0.54296 l 2.08399,-2.71485 v -0.54297 l -3.125,2.71485 v -0.54297 l -2.60352,-3.25781 4.16602,-4.3418 h -0.52149 l -4.6875,4.3418 c 0,-1.08583 -1.21397,-2.53209 -3.64453,-4.3418 h -0.52148 l 1.5625,2.16992 v 0.54297 h -1.5625 l -0.52149,-0.54297 v 0.54297 l -0.51953,0.54297 1.04102,1.08594 h 1.04101 v 0.54296 h -0.51953 l -1.5625,-1.08593 h -1.5625 v 1.08593 l 7.21485,7.99219 c -0.25423,-0.0147 -0.46906,-0.0372 -0.71875,-0.0527 -4.58667,-4.57549 -7.01758,-7.30136 -7.01758,-7.93946 h -1.5625 l 0.52148,0.54297 -1.04297,1.08594 c 0,-1.08583 -0.69314,-1.99096 -2.08203,-2.71484 h -0.52148 l 1.04101,1.6289 v 1.08594 l -0.51953,0.54297 h 1.04102 l 0.52148,-0.54297 v 1.08594 l -0.52148,0.54297 c -0.86806,0 -2.08398,-0.72411 -3.64649,-2.17188 h -0.51953 l 2.08203,2.71485 v 1.08593 l -1.27343,1.32813 c -0.0993,-0.024 -0.20945,-0.046 -0.30664,-0.0703 -0.0862,-1.19626 -0.59805,-1.80079 -1.54493,-1.80079 h -0.51953 l 1.42188,1.62305 c -1.11934,-0.30627 -2.09303,-0.64076 -2.91016,-1.00586 l -0.0742,-0.0742 h -0.10156 c -2.09791,-0.97264 -3.1543,-2.14826 -3.1543,-3.52929 v -6.65039 c 5.81597,-8.86759 11.50109,-13.30079 17.05664,-13.30079 z m -80.98828,1.76368 v 1.6289 h 1.04102 c -0.95486,1.80972 -1.99653,2.71485 -3.125,2.71485 v 1.08593 h 1.5625 l 2.08398,-3.25781 1.04102,1.08594 -4.16602,4.34375 -2.60547,-3.80078 h -0.51953 l -0.52148,0.54297 4.6875,4.88671 h 0.52148 v -1.08593 l -0.52148,-0.54297 0.52148,-0.54297 h 0.51953 l 0.52149,0.54297 h 0.52148 v -0.54297 l 1.5625,-1.62891 v -0.54296 l -0.52148,-0.54297 0.52148,-0.54297 4.16602,3.80078 -7.29102,8.14258 v 0.54297 l 3.125,-2.71485 3.64453,3.80078 h 0.52149 l 0.52148,-0.54297 c -1.73611,-2.53359 -3.1263,-3.80078 -4.16797,-3.80078 l 4.16797,-4.34179 c 1.38889,0.72388 2.08203,1.62901 2.08203,2.71484 h 1.5625 l -2.60351,-3.25781 v -1.08594 c 0.69445,0 2.25694,-1.62924 4.6875,-4.88672 h -0.52149 l -4.05664,3.46094 0.41211,-1.28906 v -0.54297 l -1.5625,1.6289 v 0.54297 h 0.75196 l -1.27344,1.08594 -6.25,-7.05859 z m 0,9.23046 c 0,1.44777 0.69314,2.35291 2.08203,2.71485 l 3.64649,-3.80078 v -0.54297 l -3.64649,3.25781 c -0.69444,0 -1.04101,-0.54308 -1.04101,-1.62891 z m 4.16602,-3.80078 -2.60352,2.71485 v 0.54297 l 2.60352,-2.71485 z m 0.52148,1.62891 -1.04297,1.08594 v 0.54297 l 1.5625,-1.62891 z m 5.72852,0 v 0.54297 l 2.08398,2.17187 c 0,-1.44776 -0.69509,-2.3529 -2.08398,-2.71484 z m -13.02149,2.17187 -1.04101,1.08594 v 0.54297 l 1.5625,-1.62891 z m -77.60351,1.62891 -12.500002,12.48633 1.041015,1.08594 h 0.521485 c 0,-0.99534 3.820092,-5.157 11.458982,-12.48633 V -140 Z m 79.16601,0 -2.60351,1.62891 v 0.54101 l 0.52148,0.54297 2.60352,-2.71289 z m 8.33399,0 c 0.26041,1.80971 0.78125,2.71289 1.5625,2.71289 h 0.52148 v -0.54297 z m 79.6875,0.54297 -2.60352,2.71289 v 0.54297 h 1.04102 c 0.69444,-0.18097 1.38954,-1.08415 2.08398,-2.71289 z m -166.14649,1.08594 -11.978512,12.48633 c 1.302082,0 5.294486,-3.98258 11.978512,-11.94532 z m 80.20899,0 -3.125,2.71289 v 0.54297 l 0.52148,0.54297 2.60352,-3.25782 z m 5.20898,0 v 1.08398 l 0.51953,0.54297 h 0.52149 l 0.52148,-0.54297 -1.04297,-1.08398 z m 84.375,1.62695 -3.125,3.25781 v 0.54297 h 0.51953 l 3.125,-3.25781 v -0.54297 z m -7.29297,0.54297 6.77149,8.14453 h -0.52149 l -7.29101,-7.05859 z m -116.14453,2.17187 c -2.08333,1.2668 -3.125,2.53399 -3.125,3.80079 h -1.04297 v 1.08593 h 0.52149 l 4.16601,-4.88672 z m -4.16797,4.88672 h -0.51953 l -3.125,3.25782 v 0.54296 h 0.51953 l 3.125,-3.25781 z m -3.64453,3.80078 h -1.04297 l -3.125,4.34375 h 0.52149 l 3.64648,-3.80078 z m -3.125,-8.14453 3.125,4.34375 h 1.5625 l -4.16797,-4.34375 z m 6.25,0 v 0.54297 l 1.04102,1.08594 h 0.52148 v -0.54297 l -1.04297,-1.08594 z m 6.25,0 -11.45898,12.48828 v 0.54297 c 7.98611,-7.78176 11.97851,-12.12639 11.97851,-13.03125 z m 113.01953,0 h 0.52149 c 2.43055,2.89554 3.99305,4.34375 4.6875,4.34375 v 0.54297 h -0.52149 c -0.60763,0 -2.17013,-1.62924 -4.6875,-4.88672 z m -110.9375,0.54297 -12.5,13.03125 v 0.54297 l 12.5,-13.03125 z m 105.73047,0.54297 h 1.04102 l 1.5625,2.71484 -2.60352,-1.6289 z m -121.875,0.54297 v 1.08594 l 4.16602,3.80078 h 1.04101 c 0,-1.08583 -1.5625,-2.71507 -4.6875,-4.88672 z m 16.14453,1.08594 -12.5,13.02929 h 0.52149 l 12.5,-13.02929 z m 2.08399,0 -13.54102,14.11523 h 0.51953 l 13.02149,-13.57226 z m 96.875,0 1.5625,1.6289 v -0.54297 l -1.04102,-1.08593 z m 5.72851,0 h 0.52149 l -1.04102,1.08593 h -0.52148 z m -2.60351,2.17187 1.5625,1.08594 v 0.36914 c -0.28278,-0.0467 -0.55478,-0.0956 -0.82617,-0.14453 l -0.21485,-0.22461 h -0.52148 v 0.0859 c -0.32099,-0.0627 -0.6357,-0.12536 -0.93946,-0.19141 z m 14.0625,0.54297 h 0.52148 l 1.04102,1.08594 v 0.13672 l -0.65625,0.17773 -0.90625,-0.31445 z m 3.125,0.54297 h 0.52148 l 0.0977,0.0879 -0.61914,0.16797 z m -115.625,2.17187 10.9375,11.40039 v -0.54296 l -10.41602,-10.85743 z m -3.125,3.25782 -2.60352,2.71484 v 0.54102 l 2.60352,-2.71289 10.9375,10.31445 h 0.52148 l -10.9375,-10.85742 z m 2.08398,0 9.375,9.77148 v -0.54297 l -8.85547,-9.22851 z m 7.8125,0.54297 v 1.08593 l 4.6875,4.88477 h 1.5625 c 0,-1.62874 -2.08333,-3.61808 -6.25,-5.9707 z m 5.72852,1.08593 2.08398,2.16993 v -0.54297 l -1.5625,-1.62696 z m 7.29101,0 -1.04101,1.08594 v 0.54102 l 1.5625,-1.62696 z m -8.33203,0.54297 v 0.54297 l 2.08203,2.16992 v -0.54297 z m 14.58203,0 c -1.38889,0 -2.95138,1.26523 -4.6875,3.79883 v 0.54297 h 0.52149 z m -37.5,1.62696 -2.08203,2.17187 h 0.51953 l 1.5625,-1.62891 z m 4.6875,0.54296 10.9375,11.40235 h 0.52149 v -0.54297 l -10.9375,-10.85938 z m -1.04101,0.54297 -1.5625,1.62891 1.5625,-0.54297 9.89648,9.77344 v -0.54297 z m 32.8125,0 -2.08399,2.17188 v 0.54297 l 2.60547,-2.71485 z m -6.77149,1.08594 v 0.54297 l 5.20899,5.42969 v -1.08594 z m -19.26953,2.17187 4.6875,4.88672 h 0.51953 l -4.6875,-4.88672 z m 128.93946,11.63672 c 0.47335,0.24478 0.98573,0.49882 1.42382,0.73633 -0.7957,0.47753 -1.19726,1.05925 -1.19726,1.74414 l -1.5625,-1.08593 z m 2.18164,1.1543 c 0.47527,0.26571 0.92597,0.52693 1.35546,0.7832 h -0.18554 c -0.86806,0 -1.3889,0.72215 -1.5625,2.169926 l -1.04102,-1.085938 z m -135.8086,0.7832 v 0.54297 l 8.85352,9.228518 -0.50977,0.53125 c -0.0524,-0.0444 -0.0869,-0.07783 -0.14062,-0.123047 v 0.269531 l -2.9961,3.123047 1.04297,1.085938 c 0.65567,-1.739732 1.52098,-2.86699 2.58594,-3.412109 l 2.36133,2.460937 v 0.814453 h -0.39063 c 0,-0.814372 -0.39062,-1.220703 -1.17187,-1.220703 -1.99653,1.62874 -2.99414,2.805412 -2.99414,3.529297 l -8.98438,-8.958984 1.17188,-1.492188 h -0.39063 l -1.17187,0.677734 -1.17188,-0.677734 v 0.271484 l 0.78125,0.814454 -7.55273,8.279296 v 0.40625 l 6.50976,-6.65039 1.04297,0.271484 h 0.39063 l -0.78125,-0.677734 0.78125,-0.814453 6.76953,6.65039 2.60547,3.529297 1.95312,-1.628906 -0.39062,-1.085938 1.43164,-1.628906 0.78125,0.814453 c -2.25695,2.352628 -3.38477,3.800836 -3.38477,4.34375 h -0.39062 l -1.4336,-1.222656 c -1.5625,1.17631 -2.34375,2.081443 -2.34375,2.714844 h -0.25976 l -0.39063,-0.408203 h -0.39062 v 0.408203 l 0.39062,0.40625 v 0.408203 l -0.39062,0.40625 -1.17188,-0.40625 -0.78125,0.814453 v 0.40625 h 0.78125 v 0.408203 h -0.78125 l -0.39062,-0.408203 h -0.25977 l 0.65039,0.814453 -2.60351,2.714844 v -0.40625 l 1.5625,-2.03711 -0.78125,-0.677734 v 0.677734 l -1.5625,2.44336 h -0.39063 l -0.26172,-0.40625 h -0.39062 v 0.40625 l 0.39062,0.408203 c 4.42708,4.252823 6.77084,6.831471 7.03125,7.736328 l 1.5625,-0.271484 c 1.82292,0 3.47353,1.538721 4.94922,4.615234 1.04167,0.36194 2.03928,1.536662 2.99414,3.527344 v 0.408203 l -0.39062,0.40625 h 0.39062 l 0.65039,-0.814453 c 1.5625,0.633401 2.34375,1.403737 2.34375,2.308594 h 0.78125 v 0.814453 l -2.73437,-2.308594 -0.65039,0.814453 c 0.78125,0 1.90907,0.770339 3.38476,2.308594 h 0.26172 v -0.814453 h 0.39063 l 0.39062,2.443359 -0.39062,0.271485 v 0.40625 l 1.5625,-1.085938 v 1.085938 l -0.39063,0.40625 1.17188,-0.40625 6.76953,7.464843 v 0.814453 c -2.08334,3.347966 -3.125,5.429769 -3.125,6.244141 0,0.542913 0.39062,0.814453 1.17187,0.814453 v 1.220703 l -0.39062,0.408203 1.17187,-0.408203 0.78125,0.679688 -0.78125,0.814453 c 0.17361,1.357284 0.56424,2.035156 1.17188,2.035156 h 0.26172 l 0.39062,-0.408203 v 0.814453 l -0.39062,0.271484 h 0.39062 l 0.78125,-0.677734 c 0,-0.723883 -0.60894,-1.130216 -1.82422,-1.220703 v -0.408203 l 0.65235,-0.814453 v 0.408203 l 1.82226,2.035156 -1.43164,1.900391 v 0.40625 l 1.82227,-1.900391 1.5625,1.494141 -1.5625,2.035156 h 0.39062 l 1.17188,-1.220703 h 0.39062 l 0.39063,0.40625 h 0.65039 l 1.17187,-1.220703 c 3.0382,-0.81437 4.5586,-1.447963 4.5586,-1.900391 h -1.17188 l 0.78125,-1.220703 1.04102,0.8125 -0.25977,-1.220703 v -0.40625 l 1.04102,0.814453 h 0.39062 v -0.408203 l -0.78125,-0.814453 2.73438,-3.121094 1.43164,1.220703 h 0.39062 l -1.17187,-1.628906 v -0.40625 l 1.5625,1.220703 v -0.40625 l -0.78125,-0.814453 c 0,-0.723883 0.39062,-1.085938 1.17187,-1.085938 v -1.222656 c 0,-1.266797 -0.39062,-2.035185 -1.17187,-2.30664 v -0.40625 l 0.39062,-0.408204 v -0.40625 l -0.39062,-0.408203 0.39062,-0.40625 v -0.408203 l -0.39062,-0.271484 0.78125,-0.814453 h -0.78125 l -0.39063,0.408203 -0.78125,-2.03711 2.73438,-5.835937 -1.5625,-4.34375 h 0.39062 c 0,-2.171654 -0.8674,-4.38825 -2.60351,-6.650391 v -0.40625 l 0.39062,-0.408203 v -0.40625 l -0.78125,0.814453 -1.58984,-1.49414 h 0.41797 v -0.40625 l -4.03711,-4.34375 c 5.90278,-6.514961 9.15798,-9.771485 9.76562,-9.771485 l 0.01,-0.01172 -1.01172,-0.982421 -0.56055,0.585937 c -5.55555,6.243505 -8.68055,9.365234 -9.375,9.365234 v 0.814454 c 2.60752,1.838691 4.05948,3.287837 4.36328,4.349609 l -5.92578,-5.570313 v -0.408203 h 0.39063 l 0.39062,0.408203 h 0.39063 c 0,-0.557778 3.28351,-4.129576 9.47656,-10.371093 l -0.37109,-0.361328 -0.1211,0.144531 h -0.78125 c 0,-0.452427 -0.8674,-1.357563 -2.60351,-2.714844 h -0.39063 l 2.99414,3.123047 -8.59375,9.5 c -3.47222,-1.357284 -5.20703,-2.533956 -5.20703,-3.529297 l -0.39062,0.271484 c -3.55903,0 -5.94683,-1.039924 -7.16211,-3.121093 h -0.25977 l -0.39062,0.40625 c 0,-0.633401 -2.2576,-2.98479 -6.77149,-7.056641 v -0.408203 c 0.43403,0 1.56185,-0.90513 3.38477,-2.714844 v -0.40625 l -0.39063,-0.40625 -3.77539,3.527344 c 0,-0.374415 -0.81756,-1.27272 -2.36328,-2.638672 0.37502,-0.1354 0.77,-0.210937 1.19141,-0.210937 z m 42.04688,17.091801 0.25,-0.300782 -2.19336,-2.132812 v 0.542969 z m 0.25,-0.300782 0.39648,0.386719 c 0.24298,-0.244562 0.46065,-0.467646 0.71289,-0.720703 l -0.17773,-0.169922 v -0.542969 l 0.45312,0.435547 c 0.44435,-0.445262 0.76796,-0.779106 1.24024,-1.25 l 1.17187,1.220703 -1.5625,0.408204 c 0,0.152738 -0.0247,0.27109 -0.041,0.40039 l 0.93554,0.898438 1.0586,-1.298828 h 0.39062 l 0.39063,0.271484 c -0.44095,0.689455 -0.85377,1.200051 -1.24805,1.597656 l 0.46094,0.44336 1.17773,-1.226563 2.60352,2.441406 v -0.40625 l -2.34375,-2.443359 2.34375,-2.714844 v -0.40625 l -2.60352,2.44336 h -0.39062 v -0.408204 l 1.82226,-2.035156 v -0.408203 l -0.39062,-0.40625 -2.21289,2.035156 -1.17188,-0.814453 1.5625,-1.90039 v -0.40625 l -2.34375,1.492187 -3.38672,-3.529297 h -0.25976 l 3.64648,3.9375 z m 4.18164,2.080079 -0.27149,0.28125 3.79297,3.648437 v -0.542969 z m -0.27149,0.28125 -0.46289,-0.445313 c -0.32805,0.282472 -0.63968,0.460376 -0.93359,0.529297 l 0.68164,0.664062 z m -0.71484,0.748046 -0.17969,0.185547 1.73633,1.328125 z m 1.55664,1.513672 0.2168,0.210938 v -0.04492 z m 0.2168,0.210938 v 0.361328 h -0.1875 l 0.83789,0.814453 v -0.542969 z m -0.1875,0.361328 -2.54688,-2.478516 v 0.84961 l 2.34375,1.628906 z m -2.54688,-2.478516 v -0.234375 c 0.0913,0 0.18444,-0.01487 0.2793,-0.03711 l -0.28516,-0.277344 -0.24609,0.302734 z m -0.006,-0.548828 0.65235,-0.796875 -0.79297,-0.761719 c -0.14659,0.387439 -0.40586,0.611921 -0.80274,0.640625 z m -0.94336,-0.917969 -0.88867,-0.863281 c -0.0934,0.09396 -0.18341,0.182687 -0.27539,0.275391 l 0.84961,0.826172 0.2207,-0.228516 c 0.0334,0 0.062,-0.0075 0.0938,-0.0098 z m 0.80274,-0.640625 c 0.0484,-0.127888 0.0844,-0.274431 0.10547,-0.441406 l -0.8086,-0.779297 c -0.0986,0.09883 -0.17814,0.179776 -0.27539,0.277344 z m 0.79297,0.761719 0.5664,0.544922 c 0.0885,-0.07624 0.18241,-0.187496 0.27344,-0.279297 l -0.5918,-0.570312 z m 92.32226,-17.962893 c 0.41672,0.25327 0.80659,0.50026 1.17774,0.744143 l -1.69922,1.769531 v 0.542969 h 0.52148 l 2.08203,-1.628906 v -0.06445 c 0.11613,0.0825 0.23516,0.166693 0.34571,0.248047 l -1.90821,1.988281 v 0.542969 l 2.08399,-2.171875 v -0.234375 c 0.44975,0.337238 0.84088,0.661313 1.19336,0.978515 l -2.75586,2.513672 -2.60352,-2.714844 1.5625,-2.169927 z m -4.6875,1.427737 h 1.04102 l 0.52148,0.542969 v 1.085937 h -0.52148 l -1.04102,-1.085937 z m 2.08203,1.628906 2.60547,2.171875 v 0.542969 l -2.60547,-1.628906 z m -128.64453,0.542969 v 0.542969 l 6.25,5.972656 v -0.542969 z m -3.125,1.085937 -1.5625,1.628907 h 1.5625 l -1.04297,1.628906 h 0.52149 l 1.5625,-1.085938 -0.52149,-2.171875 z m 109.375,1.628907 -2.08398,2.714843 h 0.52148 l 2.08203,-2.714843 z m -108.85547,1.085937 v 1.628906 l 1.04297,-1.085937 v -0.542969 z m 3.125,1.628906 -3.125,3.257813 h 0.52149 l 2.60351,-2.714844 z m 54.6875,1.628907 v 1.085937 h 0.52149 l 1.04101,-1.085937 z m 46.35547,0.542968 -4.6875,5.429688 h 0.51953 l 4.6875,-5.429688 z m -133.85547,24.431641 v 0.542969 l 1.5625,1.628906 v 0.542969 h -0.51953 l -0.52148,-0.542969 v 0.542969 l 1.5625,2.169922 v 0.542968 l -2.08399,-1.628906 h -0.51953 v 1.085938 c 1.04167,0 1.90907,0.724104 2.60352,2.171875 h 0.52148 l 0.51953,-0.542969 -0.51953,-2.171875 v -0.542969 l 1.5625,1.085938 v -0.542969 l -3.64648,-4.341797 z m -3.125,3.798828 c 1.99653,3.257482 3.55903,4.886719 4.6875,4.886719 v 0.542969 l -0.51953,0.542968 -4.6875,-4.34375 v 0.542969 l 3.64453,4.34375 -1.5625,1.628906 h -0.51953 l 1.04102,-1.628906 v -1.085937 l -3.125,-2.171875 h -0.52149 v 0.542968 l 1.5625,2.714844 h -0.51953 l 1.04102,3.257813 -0.52149,0.542968 1.04297,1.085938 v -1.085938 h 0.51953 l 1.04297,1.085938 v 0.542969 h -1.04297 v 1.085937 h 0.52149 l 0.52148,-0.542969 h 0.51953 l -1.5625,2.171875 h 0.52149 l 1.5625,-1.085937 h 0.52148 v 0.542969 l -0.52148,0.542968 v 1.085938 h 0.52148 l 1.5625,-1.085938 v 0.542969 c 0,1.085831 -0.69509,1.628906 -2.08398,1.628906 v 0.542969 l 0.52148,0.542969 2.60352,-2.171875 1.04101,1.085937 v 0.542969 h -1.04101 l -0.52149,-0.542969 h -0.51953 c 1.64931,2.171654 3.38412,3.25586 5.20703,3.25586 v 0.542968 l -0.51953,0.542969 v 0.542969 h 1.04102 l 0.52148,-0.542969 0.51953,0.542969 h 1.04297 c 0,-0.723885 -0.52083,-1.085938 -1.5625,-1.085938 l 1.5625,-1.628906 h 1.04102 v 1.085938 h 0.52148 l 0.51953,-0.542969 c 0,-0.723885 -0.52083,-1.083984 -1.5625,-1.083984 l 2.08399,-2.171875 1.5625,1.085937 h 0.52148 l -1.5625,-1.628906 3.125,-3.800781 2.08203,1.628906 v -0.542969 l -1.04101,-1.085937 c 0,-0.904855 0.69509,-2.17204 2.08398,-3.800782 v -0.542968 c -1.73611,0.995341 -2.60547,2.0815 -2.60547,3.257812 h -0.51953 l -0.52148,-1.628906 0.52148,-0.542969 v -1.085937 h -1.04297 v 1.628906 h -0.51953 l -0.52148,-1.628906 0.52148,-0.542969 -2.08398,-2.171875 h -0.52149 v 1.085937 c 1.04167,0 1.5625,0.362055 1.5625,1.085938 v 0.542969 l -1.5625,-1.628907 -1.04101,-1.085937 1.5625,-2.171875 v -0.542969 l -1.04102,1.085938 -1.5625,-1.085938 h -0.52148 l -0.52149,0.542969 -0.51953,-0.542969 1.04102,-1.628906 h -1.04102 l -0.52148,0.542969 -1.04102,-1.085938 h -1.5625 c 0,0.904857 -1.21593,2.353065 -3.64648,4.34375 l -4.6875,-4.34375 z m 20.3125,13.03125 v 0.542969 l 2.08399,2.171875 h 0.52148 z m -2.08203,1.085938 v 1.628906 l 0.51953,-0.542969 2.60547,2.171875 v -0.542969 l -2.60547,-2.714843 z m 75,0 1.04102,1.085937 h 0.52148 l -1.04297,-1.085937 z m -1.5625,0.542968 -0.52148,0.542969 v 0.542969 l 0.52148,0.542969 h 0.51953 l 0.52149,-0.542969 v -0.542969 l -0.52149,-0.542969 z m -76.04297,2.714844 1.04297,1.085938 h 0.51953 l -1.04101,-1.085938 z m 61.98047,4.884766 -2.08398,2.171875 h 0.52148 l 2.08203,-2.171875 z m 43.75,21.716797 v 0.542968 l 1.5625,1.085938 v -0.542969 z m 13.01953,0 1.04297,2.171875 h 1.04102 v -0.542969 l -1.5625,-1.628906 z m -1.5625,1.085937 v 1.628906 c 0.95487,0 1.99653,0.543079 3.125,1.628907 v -0.542969 c -0.60763,-1.357284 -1.6493,-2.262416 -3.125,-2.714844 z m -1.5625,1.628906 v 1.085938 l 2.08399,1.085937 h 0.52148 l -2.08398,-2.171875 z m -7.29101,1.085938 v 1.628906 l 0.52148,-0.542969 h 0.51953 l 0.52149,0.542969 v -0.542969 l -1.04102,-1.085937 z"
         style="font-style:normal;font-variant:normal;font-weight:normal;font-stretch:normal;font-size:72.03559875px;line-height:1;font-family:'junko\'s typewriter';-inkscape-font-specification:'junko\'s typewriter';font-variant-ligatures:normal;font-variant-caps:normal;font-variant-numeric:normal;font-feature-settings:normal;text-align:start;writing-mode:lr-tb;text-anchor:start;fill:#410000;fill-opacity:1;stroke:none;stroke-width:0.99999994;stroke-linecap:square;stroke-linejoin:miter;stroke-miterlimit:4;stroke-dasharray:none;stroke-dashoffset:0;stroke-opacity:1;paint-order:fill markers stroke" />
      <g
         transform="rotate(-2.7723169,1993.0664,-332.60303)"
         id="g974">
        <path
           style="font-style:normal;font-variant:normal;font-weight:normal;font-stretch:normal;font-size:72.03559875px;line-height:1;font-family:'junko\'s typewriter';-inkscape-font-specification:'junko\'s typewriter';font-variant-ligatures:normal;font-variant-caps:normal;font-variant-numeric:normal;font-feature-settings:normal;text-align:start;writing-mode:lr-tb;text-anchor:start;fill:#410000;fill-opacity:1;stroke:none;stroke-width:0.26458332;stroke-linecap:square;stroke-linejoin:miter;stroke-miterlimit:4;stroke-dasharray:none;stroke-dashoffset:0;stroke-opacity:1;paint-order:fill markers stroke"
           d="m 87.931409,-178.59585 0.55121,0.57458 -0.55121,0.6105 h -0.2756 l -0.58568,-0.6105 z"
           id="path938" />
        <path
           style="font-style:normal;font-variant:normal;font-weight:normal;font-stretch:normal;font-size:72.03559875px;line-height:1;font-family:'junko\'s typewriter';-inkscape-font-specification:'junko\'s typewriter';font-variant-ligatures:normal;font-variant-caps:normal;font-variant-numeric:normal;font-feature-settings:normal;text-align:start;writing-mode:lr-tb;text-anchor:start;fill:#410000;fill-opacity:1;stroke:none;stroke-width:0.26458332;stroke-linecap:square;stroke-linejoin:miter;stroke-miterlimit:4;stroke-dasharray:none;stroke-dashoffset:0;stroke-opacity:1;paint-order:fill markers stroke"
           d="m 93.030149,-175.9384 h 0.58567 l 1.41249,1.79557 q -2.85943,2.37016 -3.68626,2.37016 l -0.27561,-0.32321 v -0.28729 q 0,-3.55523 1.96371,-3.55523 z"
           id="path936" />
        <path
           style="font-style:normal;font-variant:normal;font-weight:normal;font-stretch:normal;font-size:72.03559875px;line-height:1;font-family:'junko\'s typewriter';-inkscape-font-specification:'junko\'s typewriter';font-variant-ligatures:normal;font-variant-caps:normal;font-variant-numeric:normal;font-feature-settings:normal;text-align:start;writing-mode:lr-tb;text-anchor:start;fill:#410000;fill-opacity:1;stroke:none;stroke-width:0.26458332;stroke-linecap:square;stroke-linejoin:miter;stroke-miterlimit:4;stroke-dasharray:none;stroke-dashoffset:0;stroke-opacity:1;paint-order:fill markers stroke"
           d="m 89.343899,-174.75332 h 0.27561 q 0.58566,0 0.58566,0.89778 -0.96462,2.08287 -1.41248,2.08287 h -0.31007 l -0.55121,-0.6105 v -0.28729 z"
           id="path934" />
        <path
           style="font-style:normal;font-variant:normal;font-weight:normal;font-stretch:normal;font-size:72.03559875px;line-height:1;font-family:'junko\'s typewriter';-inkscape-font-specification:'junko\'s typewriter';font-variant-ligatures:normal;font-variant-caps:normal;font-variant-numeric:normal;font-feature-settings:normal;text-align:start;writing-mode:lr-tb;text-anchor:start;fill:#410000;fill-opacity:1;stroke:none;stroke-width:0.26458332;stroke-linecap:square;stroke-linejoin:miter;stroke-miterlimit:4;stroke-dasharray:none;stroke-dashoffset:0;stroke-opacity:1;paint-order:fill markers stroke"
           d="m 77.906183,-153.85285 h 0.241157 q 1.860351,0.25138 1.998155,0.82597 -0.172255,2.90882 -0.75792,2.90882 -2.48047,-0.57458 -2.48047,-1.65192 l -0.516764,-0.82597 z"
           id="path932" />
        <path
           style="font-style:normal;font-variant:normal;font-weight:normal;font-stretch:normal;font-size:72.03559875px;line-height:1;font-family:'junko\'s typewriter';-inkscape-font-specification:'junko\'s typewriter';font-variant-ligatures:normal;font-variant-caps:normal;font-variant-numeric:normal;font-feature-settings:normal;text-align:start;writing-mode:lr-tb;text-anchor:start;fill:#410000;fill-opacity:1;stroke:none;stroke-width:0.26458332;stroke-linecap:square;stroke-linejoin:miter;stroke-miterlimit:4;stroke-dasharray:none;stroke-dashoffset:0;stroke-opacity:1;paint-order:fill markers stroke"
           d="m 98.676428,-180.03662 h 0.31005 l 0.55122,0.61049 1.136882,0.28729 0.27561,0.2873 v 0.28729 l 1.41249,-0.57459 0.86127,1.18508 v 0.2873 q 0,0.75414 -3.410642,1.18507 -2.34267,0 -3.10059,-2.65745 z"
           id="path930" />
        <path
           style="font-style:normal;font-variant:normal;font-weight:normal;font-stretch:normal;font-size:72.03559875px;line-height:1;font-family:'junko\'s typewriter';-inkscape-font-specification:'junko\'s typewriter';font-variant-ligatures:normal;font-variant-caps:normal;font-variant-numeric:normal;font-feature-settings:normal;text-align:start;writing-mode:lr-tb;text-anchor:start;fill:#410000;fill-opacity:1;stroke:none;stroke-width:0.26458332;stroke-linecap:square;stroke-linejoin:miter;stroke-miterlimit:4;stroke-dasharray:none;stroke-dashoffset:0;stroke-opacity:1;paint-order:fill markers stroke"
           d="m 92.754539,-165.2727 0.58567,0.57459 -0.58567,0.61049 -0.55121,-0.61049 z"
           id="path928" />
        <path
           style="font-style:normal;font-variant:normal;font-weight:normal;font-stretch:normal;font-size:72.03559875px;line-height:1;font-family:'junko\'s typewriter';-inkscape-font-specification:'junko\'s typewriter';font-variant-ligatures:normal;font-variant-caps:normal;font-variant-numeric:normal;font-feature-settings:normal;text-align:start;writing-mode:lr-tb;text-anchor:start;fill:#410000;fill-opacity:1;stroke:none;stroke-width:0.26458332;stroke-linecap:square;stroke-linejoin:miter;stroke-miterlimit:4;stroke-dasharray:none;stroke-dashoffset:0;stroke-opacity:1;paint-order:fill markers stroke"
           d="m 122.57592,-176.62513 c -0.97899,0 -2.14721,0.67468 -3.50515,2.02436 l 0.80505,2.86422 c -0.18948,1.87638 -0.58375,2.8145 -1.18378,2.8145 l 0.37873,2.02436 -4.26331,0.83916 h -1.56321 l -3.12642,-0.83916 h -0.42633 c -3.37907,0.72421 -5.06836,1.54744 -5.06836,2.46916 v 2.41943 l 0.42633,0.4441 c 3.53697,0.52669 5.47913,1.06967 5.82651,1.62929 1.57901,0 2.36827,1.89305 2.36827,5.67873 -1.04214,0.95464 -1.56321,2.0413 -1.56321,3.25928 0.75793,0.98757 1.13688,1.94179 1.13688,2.86352 v 1.18521 l -0.37873,2.02435 c 0.7895,0.62546 1.18379,1.58039 1.18379,2.86424 v 0.39506 l -0.80506,0.83917 h -0.75816 l -2.36826,-1.6293 -2.7001,-5.67873 c -0.53685,-3.12728 -1.579,-5.16816 -3.12642,-6.1228 v -5.67873 l -7.01101,-6.51789 -3.126423,0.39507 -3.126425,-0.39507 h -0.426329 l 0.426329,-2.86352 -1.183779,-1.23422 h -1.184489 l -0.758156,0.83916 v 0.39506 c 0,0.55963 0.521074,0.83916 1.563214,0.83916 0,1.18508 -0.789254,2.12321 -2.368268,2.81449 v -0.79013 l 0.426329,-0.44409 h -0.426329 l -0.378725,-0.39506 -0.379434,1.62928 c -1.294787,0.88881 -1.941936,1.97547 -1.941936,3.2593 v 0.83917 c 0.12632,0.62545 1.026358,1.30013 2.700095,2.02435 l 1.941936,-0.83915 c 1.389528,0 2.573783,1.08664 3.552752,3.25928 v 0.83917 l -0.805053,3.2593 0.378725,1.62929 -0.378725,3.65365 1.184488,2.02436 -0.805763,3.65437 0.805763,15.9 c -0.947391,0.79004 -1.863456,1.18448 -2.747698,1.18448 l -2.321371,-0.78942 c -0.821086,0 -1.989306,1.21765 -3.505149,3.65366 v 0.79013 c 1.105297,1.90929 2.921389,2.86422 5.447794,2.86422 h 1.563214 l 3.505146,-0.79013 4.310912,0.39508 5.447095,-0.39508 1.18448,-0.83986 c 0,-2.20557 -0.78928,-3.83519 -2.36827,-4.8886 -3.631711,-0.7242 -5.447794,-1.3989 -5.447794,-2.02436 v -1.62929 l 1.184489,-2.41943 -0.805763,-2.46915 0.426329,-4.4438 v -0.4448 c -1.326361,-3.19314 -1.989539,-6.43556 -1.989539,-9.72745 v -1.62928 l 0.805763,-0.83917 h 1.183776 l 3.079529,2.86352 c 0.69476,3.25897 1.35795,4.8886 1.98955,4.8886 0.28423,2.76519 2.49459,8.1802 6.63157,16.24533 0,3.6869 1.29502,6.40317 3.88458,8.14787 2.87377,0 4.56308,0.27956 5.06836,0.83917 1.70532,0 3.01565,-1.23448 3.93148,-3.70339 l -0.42633,-1.6293 c -3.09485,-1.34968 -4.64203,-2.96319 -4.64203,-4.83956 v -2.46846 l -0.42634,-5.28365 1.18449,-14.22096 -0.75815,-8.14719 c 0.97896,-1.0534 2.00509,-1.59709 3.07881,-1.63 l 2.7477,0.39507 c 1.83164,-1.02048 2.7477,-1.97471 2.7477,-2.86352 0,-1.97513 -1.43713,-3.32521 -4.31091,-4.04943 v -0.39507 c 0.7895,0 2.35271,-1.21765 4.68963,-3.65365 -0.44211,-4.34528 -1.87924,-6.51788 -4.3109,-6.51788 z m -25.342515,17.87461 1.56321,1.63 v 1.23424 l -0.805763,0.79013 c -0.663171,0 -1.184245,-0.93812 -1.56321,-2.8145 z"
           id="path926" />
        <path
           style="font-style:normal;font-variant:normal;font-weight:normal;font-stretch:normal;font-size:72.03559875px;line-height:1;font-family:'junko\'s typewriter';-inkscape-font-specification:'junko\'s typewriter';font-variant-ligatures:normal;font-variant-caps:normal;font-variant-numeric:normal;font-feature-settings:normal;text-align:start;writing-mode:lr-tb;text-anchor:start;fill:#410000;fill-opacity:1;stroke:none;stroke-width:0.26458332;stroke-linecap:square;stroke-linejoin:miter;stroke-miterlimit:4;stroke-dasharray:none;stroke-dashoffset:0;stroke-opacity:1;paint-order:fill markers stroke"
           d="m 119.45404,-147.20923 h 0.55122 l 0.58566,0.57459 -0.58566,0.57458 h -0.55122 l -0.58567,-0.57458 z"
           id="path922" />
        <path
           style="font-style:normal;font-variant:normal;font-weight:normal;font-stretch:normal;font-size:72.03559875px;line-height:1;font-family:'junko\'s typewriter';-inkscape-font-specification:'junko\'s typewriter';font-variant-ligatures:normal;font-variant-caps:normal;font-variant-numeric:normal;font-feature-settings:normal;text-align:start;writing-mode:lr-tb;text-anchor:start;fill:#410000;fill-opacity:1;stroke:none;stroke-width:0.26458332;stroke-linecap:square;stroke-linejoin:miter;stroke-miterlimit:4;stroke-dasharray:none;stroke-dashoffset:0;stroke-opacity:1;paint-order:fill markers stroke"
           d="m 115.45773,-145.16227 1.13688,0.28729 0.31006,-0.28729 h 0.2756 l 1.6881,0.61049 1.13689,-0.3232 0.27559,0.3232 v 0.28729 q -1.03352,0.89779 -1.96369,0.89779 h -1.41249 l -0.31006,-0.3232 -1.41249,0.61049 -0.27561,-0.28729 v -1.18508 z"
           id="path920" />
        <path
           style="font-style:normal;font-variant:normal;font-weight:normal;font-stretch:normal;font-size:72.03559875px;line-height:1;font-family:'junko\'s typewriter';-inkscape-font-specification:'junko\'s typewriter';font-variant-ligatures:normal;font-variant-caps:normal;font-variant-numeric:normal;font-feature-settings:normal;text-align:start;writing-mode:lr-tb;text-anchor:start;fill:#410000;fill-opacity:1;stroke:none;stroke-width:0.26458332;stroke-linecap:square;stroke-linejoin:miter;stroke-miterlimit:4;stroke-dasharray:none;stroke-dashoffset:0;stroke-opacity:1;paint-order:fill markers stroke"
           d="m 117.73149,-143.07941 h 0.58567 l 0.2756,0.28729 0.27561,-0.28729 h 1.41248 l 0.86129,0.89779 -0.55122,0.57458 -0.86127,-0.57458 h -0.58567 q 0,0.86187 -0.55122,0.86187 -1.30913,-0.57458 -1.41249,-1.18507 z"
           id="path918" />
        <path
           style="font-style:normal;font-variant:normal;font-weight:normal;font-stretch:normal;font-size:72.03559875px;line-height:1;font-family:'junko\'s typewriter';-inkscape-font-specification:'junko\'s typewriter';font-variant-ligatures:normal;font-variant-caps:normal;font-variant-numeric:normal;font-feature-settings:normal;text-align:start;writing-mode:lr-tb;text-anchor:start;fill:#410000;fill-opacity:1;stroke:none;stroke-width:0.26458332;stroke-linecap:square;stroke-linejoin:miter;stroke-miterlimit:4;stroke-dasharray:none;stroke-dashoffset:0;stroke-opacity:1;paint-order:fill markers stroke"
           d="m 120.00526,-141.31975 0.58566,0.6105 -0.58566,0.57458 -0.55122,-0.57458 z"
           id="path916" />
        <path
           style="font-style:normal;font-variant:normal;font-weight:normal;font-stretch:normal;font-size:72.03559875px;line-height:1;font-family:'junko\'s typewriter';-inkscape-font-specification:'junko\'s typewriter';font-variant-ligatures:normal;font-variant-caps:normal;font-variant-numeric:normal;font-feature-settings:normal;text-align:start;writing-mode:lr-tb;text-anchor:start;fill:#410000;fill-opacity:1;stroke:none;stroke-width:0.26458332;stroke-linecap:square;stroke-linejoin:miter;stroke-miterlimit:4;stroke-dasharray:none;stroke-dashoffset:0;stroke-opacity:1;paint-order:fill markers stroke"
           d="m 122.00341,-140.99654 h 0.27561 l 0.58566,0.57458 -0.58566,0.6105 h -0.27561 l -0.58567,-0.6105 z"
           id="path914" />
        <path
           style="font-style:normal;font-variant:normal;font-weight:normal;font-stretch:normal;font-size:72.03559875px;line-height:1;font-family:'junko\'s typewriter';-inkscape-font-specification:'junko\'s typewriter';font-variant-ligatures:normal;font-variant-caps:normal;font-variant-numeric:normal;font-feature-settings:normal;text-align:start;writing-mode:lr-tb;text-anchor:start;fill:#410000;fill-opacity:1;stroke:none;stroke-width:0.99999994;stroke-linecap:square;stroke-linejoin:miter;stroke-miterlimit:4;stroke-dasharray:none;stroke-dashoffset:0;stroke-opacity:1;paint-order:fill markers stroke"
           d="m 437.80859,-452.54883 -2.59765,2.70508 c -2.91987,0.56337 -4.67742,1.73397 -5.21485,3.53906 v 3.25586 l 1.5625,2.3086 c 2.51737,0 3.77539,1.31147 3.77539,3.93554 h 0.78125 l 2.21289,-3.12109 c 4.07985,0 6.1211,-0.5431 6.1211,-1.62891 v -3.12304 l -3.70703,-5.28125 2.40429,0.80273 -3.25586,-3.39258 z"
           transform="scale(0.26458333)"
           id="path912" />
        <path
           style="font-style:normal;font-variant:normal;font-weight:normal;font-stretch:normal;font-size:72.03559875px;line-height:1;font-family:'junko\'s typewriter';-inkscape-font-specification:'junko\'s typewriter';font-variant-ligatures:normal;font-variant-caps:normal;font-variant-numeric:normal;font-feature-settings:normal;text-align:start;writing-mode:lr-tb;text-anchor:start;fill:#410000;fill-opacity:1;stroke:none;stroke-width:0.26458332;stroke-linecap:square;stroke-linejoin:miter;stroke-miterlimit:4;stroke-dasharray:none;stroke-dashoffset:0;stroke-opacity:1;paint-order:fill markers stroke"
           d="m 118.0071,-116.4331 0.31006,0.28729 v 0.2873 l -0.31006,0.28729 h -0.27561 l -0.27561,-0.28729 v -0.2873 l 0.27561,-0.28729 z"
           id="path908" />
        <path
           style="font-style:normal;font-variant:normal;font-weight:normal;font-stretch:normal;font-size:72.03559875px;line-height:1;font-family:'junko\'s typewriter';-inkscape-font-specification:'junko\'s typewriter';font-variant-ligatures:normal;font-variant-caps:normal;font-variant-numeric:normal;font-feature-settings:normal;text-align:start;writing-mode:lr-tb;text-anchor:start;fill:#410000;fill-opacity:1;stroke:none;stroke-width:0.26458332;stroke-linecap:square;stroke-linejoin:miter;stroke-miterlimit:4;stroke-dasharray:none;stroke-dashoffset:0;stroke-opacity:1;paint-order:fill markers stroke"
           d="m 116.59461,-115.24802 h 1.41249 l 0.58566,0.57458 q -0.44786,1.18508 -1.99815,1.18508 h -0.82683 l -0.58566,-0.57458 z"
           id="path897" />
      </g>
      <path
         d="m 134.89466,-75.086458 q -0.87484,-2.625218 -0.23859,-2.956824 1.6171,-0.02763 2.65098,2.072541 l 0.15908,-0.469777 0.31811,-0.165803 0.47718,0.13817 0.31813,-0.165804 -0.45068,-0.939551 q -0.95435,0.525044 -1.27247,-0.0829 l 0.34462,-0.967187 0.95437,0.276341 q -1.0339,-2.100176 0.39764,-3.316067 1.35201,-0.690846 5.96475,0.718482 l 0.13255,0.303971 -0.31812,0.939554 -0.63623,0.359239 -0.47718,-0.138169 -0.31812,0.165804 q 0.90134,1.823834 -1.03389,2.846288 l -0.34463,0.967187 -1.24598,0.663213 q -0.66274,0.359239 -1.53757,-1.49223 l -0.66275,1.132989 -0.95437,-0.276338 0.31813,0.607943 -0.66276,0.331607 z m 30.9902,-5.830747 h 0.39765 q 2.25335,0.248705 2.25335,1.160624 l 0.37114,-0.386875 h 0.37113 q 1.77618,1.07772 8.64227,2.348878 h 4.87784 l 2.25336,2.735754 -0.37115,1.962006 v 2.348879 l 0.76879,3.150261 -1.13992,6.27289 q -2.51845,2.735755 -5.24899,2.735755 -2.46543,-1.823837 -3.76442,-9.008645 0,-2.542316 -8.27113,-4.697758 l -2.62449,-0.414508 q -3.81744,0 -7.89998,5.886015 l 1.51106,-0.386874 q 2.25336,0 2.25336,1.575132 l -0.39765,1.160623 0.39765,-0.386875 h 0.37114 q 2.62449,0.552677 2.62449,1.57513 v 0.386875 q 0,2.127809 -1.51108,3.122628 h -0.37113 l -0.74228,-0.773748 0.37114,-0.386875 -0.37114,-1.188257 0.74228,-1.547497 v -0.414507 h -0.37114 v 0.801381 h -0.37114 l -1.13994,-0.801381 v 0.414507 l 0.37114,2.348879 h -0.37114 q -0.74227,0 -0.74227,-1.57513 h -0.37114 q 0,2.183076 -4.13556,5.084633 l -1.88221,5.084634 v 6.272889 q 2.25334,5.747846 2.25334,10.583773 4.98389,6.272891 7.52885,6.272891 h 2.62449 q 9.75568,-1.436961 9.75568,-5.886016 l 0.39766,-1.962004 v -1.934372 q 0,-4.310885 -5.27549,-4.310885 -2.51845,0 -4.13557,-3.150262 v -1.57513 q 0,-1.934371 6.76005,-2.735755 l 15.79997,1.962007 2.62449,3.122627 q 0,4.725393 -7.13119,4.725393 l -0.76879,1.547498 v 14.507783 q 0,2.404149 -4.13556,5.084634 h -1.11341 l -5.64665,-1.962005 q -3.9765,0 -7.13119,1.962005 h -2.62449 q -11.55836,-4.449055 -14.66003,-10.583774 -3.39329,-8.953377 -3.39329,-12.518147 l -0.37113,-0.386874 v -10.583774 q 3.36676,-14.507784 6.38891,-14.507784 0,-3.371334 9.0134,-9.782393 z m -27.04021,3.509502 0.74227,0.801382 h 0.39765 l 1.11343,-1.188257 v -0.386873 h -0.37114 z m -15.40232,7.848021 h 0.37114 l 0.74228,0.773749 -0.74228,0.801381 h -0.37114 l -0.76879,-0.801381 z m 11.31978,12.13127 h 1.06039 q 2.73053,0 2.73053,1.768569 l 0.63624,0.663213 v 0.442142 l -1.0604,0.221071 -0.21207,-0.221071 h -0.21208 q -0.21209,0.856651 -1.48457,0.856651 -1.88221,0 -1.88221,-2.84629 h 0.21208 l -0.21208,-0.22107 v -0.221072 z m -9.43757,5.886017 0.37115,0.386873 v 0.801384 l -0.74229,0.773749 -0.39765,-0.386875 v -0.801383 z m 13.83822,24.152007 q 0.92785,0.414508 1.0339,0.85665 v 0.663214 q -0.63624,0.773747 -0.63624,1.519862 v 0.63558 l 0.21208,1.07772 q -1.24597,0.85665 -2.27987,0.85665 -1.64362,-0.58031 -1.64362,-3.647672 1.98825,-1.962004 3.31375,-1.962004 z m -11.58487,-2.597584 h 0.74229 l 0.76878,0.773748 v 0.386875 l -0.76878,0.801382 h -0.74229 l -0.7688,-0.801382 v -0.386875 z m 4.87784,11.744397 v 0.386874 l 0.37114,-0.386874 h 1.88222 q 3.39328,1.436962 3.39328,4.283251 l -0.37115,0.414508 h -0.76878 l -0.37115,-0.414508 -1.51106,0.801383 -2.25336,-2.34888 -1.88221,0.386875 h -0.37114 l -0.74228,-0.773749 v -1.188257 q 0,-0.773749 2.62449,-1.160623 z m 46.39252,12.2694413 q 2.06778,1.0500875 2.06778,1.6856657 l 0.45067,1.6856676 -1.37852,1.1882565 h -0.45067 l -1.61711,-1.1882565 q 0.45068,-3.3713333 0.92785,-3.3713333 z m -25.05195,-2.5423165 0.55671,0.5526775 v 0.8566501 l -0.82183,0.8566502 h -0.53019 q -0.82181,-0.2763388 -0.82181,-1.7133003 z m 17.92076,-2.9015568 h 0.37114 l 0.74229,0.773748 v 0.414508 l -1.88222,1.9620057 -1.11342,-0.4145082 V -9.456002 Z"
         style="font-style:normal;font-variant:normal;font-weight:normal;font-stretch:normal;font-size:72.03559875px;line-height:1;font-family:'junko\'s typewriter';-inkscape-font-specification:'junko\'s typewriter';font-variant-ligatures:normal;font-variant-caps:normal;font-variant-numeric:normal;font-feature-settings:normal;text-align:start;writing-mode:lr-tb;text-anchor:start;fill:#410000;fill-opacity:1;stroke:none;stroke-width:0.26458332;stroke-linecap:square;stroke-linejoin:miter;stroke-miterlimit:4;stroke-dasharray:none;stroke-dashoffset:0;stroke-opacity:1;paint-order:fill markers stroke"
         id="path899" />
    </g>
  </g>
</svg>
