<?xml version="1.0" encoding="UTF-8" standalone="no"?>
<!-- Created with Inkscape (http://www.inkscape.org/) -->

<svg
   xmlns:dc="http://purl.org/dc/elements/1.1/"
   xmlns:cc="http://creativecommons.org/ns#"
   xmlns:rdf="http://www.w3.org/1999/02/22-rdf-syntax-ns#"
   xmlns:svg="http://www.w3.org/2000/svg"
   xmlns="http://www.w3.org/2000/svg"
   xmlns:sodipodi="http://sodipodi.sourceforge.net/DTD/sodipodi-0.dtd"
   xmlns:inkscape="http://www.inkscape.org/namespaces/inkscape"
   width="85.644905mm"
   height="124.07175mm"
   viewBox="0 0 85.644905 124.07175"
   version="1.1"
   id="svg54"
   inkscape:version="0.92.3 (2405546, 2018-03-11)"
   sodipodi:docname="With Drops of Blood.svg">
  <title
     id="title56">With Drops of Blood</title>
  <defs
     id="defs48" />
  <sodipodi:namedview
     id="base"
     pagecolor="#ffffff"
     bordercolor="#666666"
     borderopacity="1.0"
     inkscape:pageopacity="0.0"
     inkscape:pageshadow="2"
     inkscape:zoom="0.35"
     inkscape:cx="949.8572"
     inkscape:cy="-277.18108"
     inkscape:document-units="mm"
     inkscape:current-layer="layer1"
     showgrid="false"
     fit-margin-top="0"
     fit-margin-left="0"
     fit-margin-right="0"
     fit-margin-bottom="0"
     inkscape:window-width="1920"
     inkscape:window-height="1017"
     inkscape:window-x="3832"
     inkscape:window-y="-8"
     inkscape:window-maximized="1" />
  <metadata
     id="metadata51">
    <rdf:RDF>
      <cc:Work
         rdf:about="">
        <dc:format>image/svg+xml</dc:format>
        <dc:type
           rdf:resource="http://purl.org/dc/dcmitype/StillImage" />
        <dc:title>With Drops of Blood</dc:title>
        <dc:date>1920</dc:date>
        <dc:creator>
          <cc:Agent>
            <dc:title>Bill Haywood</dc:title>
          </cc:Agent>
        </dc:creator>
        <cc:license
           rdf:resource="http://creativecommons.org/publicdomain/zero/1.0/" />
      </cc:Work>
      <cc:License
         rdf:about="http://creativecommons.org/publicdomain/zero/1.0/">
        <cc:permits
           rdf:resource="http://creativecommons.org/ns#Reproduction" />
        <cc:permits
           rdf:resource="http://creativecommons.org/ns#Distribution" />
        <cc:permits
           rdf:resource="http://creativecommons.org/ns#DerivativeWorks" />
      </cc:License>
    </rdf:RDF>
  </metadata>
  <g
     inkscape:label="Layer 1"
     inkscape:groupmode="layer"
     id="layer1"
     transform="translate(145.48305,48.575918)">
    <path
       style="fill:#ff0000;fill-opacity:1;stroke-width:1"
       d="m -91.861162,75.042931 c -0.41765,-0.807644 -1.15257,-4.580081 -0.97991,-5.030026 0.14832,-0.386514 -0.32619,-4.212336 -0.88078,-7.101392 -0.12048,-0.62764 -0.0989,-1.352643 0.0512,-1.719792 0.23538,-0.575651 0.28004,-0.511601 0.47983,0.688189 0.31841,1.912138 0.44442,2.902392 1.035,8.133172 0.29146,2.581474 0.59893,4.873427 0.68328,5.09323 0.21244,0.553611 -0.0956,0.50338 -0.38866,-0.06338 z M -103.54659,56.780246 c 0,-1.32535 0.10217,-2.472877 0.22705,-2.550056 0.22098,-0.136573 0.10789,4.624847 -0.11514,4.847881 -0.0616,0.06155 -0.11191,-0.972471 -0.11191,-2.297825 z m 9.172218,2.145149 c -0.097,-0.09701 -0.17639,-0.615026 -0.17639,-1.151141 0,-0.536114 -0.1162,-1.319943 -0.25822,-1.741842 -0.33174,-0.98548 -0.52166,-3.54521 -0.26304,-3.54521 0.23287,0 0.40298,0.87671 0.78922,4.0675 0.27867,2.302055 0.26235,2.724608 -0.0916,2.370693 z m -37.747218,-5.659672 c 0,-0.153895 0.31751,-0.838505 0.70557,-1.521355 0.38807,-0.682847 1.00535,-1.836853 1.37174,-2.564458 0.48501,-0.96316 0.6955,-1.189908 0.77406,-0.833807 0.11708,0.530775 -1.0272,3.298642 -1.84873,4.471828 -0.51765,0.739225 -1.00264,0.955831 -1.00264,0.447792 z m 36.283978,-3.953521 c -0.50345,-2.745113 -0.67964,-5.20292 -0.35089,-4.894791 0.41744,0.391252 1.0995,5.024524 0.86589,5.881994 -0.17403,0.638791 -0.23997,0.512392 -0.515,-0.987203 z m 28.45235,-2.182947 c -0.55695,-0.294791 -1.12971,-0.846958 -1.27279,-1.22704 -0.14309,-0.380079 -0.8461,-1.540825 -1.56226,-2.579433 -1.37069,-1.987862 -1.99353,-3.270996 -1.58775,-3.270996 0.23027,0 1.33439,1.387644 1.33439,1.677043 0,0.07708 0.65599,1.0112 1.45776,2.075822 1.04026,1.381295 1.62531,1.935676 2.04275,1.935676 0.39967,0 0.66664,0.230928 0.84275,0.728967 0.37618,1.063866 -0.0592,1.292831 -1.25485,0.659961 z M -103.73861,43.97526 c -0.0265,-1.771153 0.0618,-3.408262 0.19616,-3.638021 0.15806,-0.270224 0.24719,0.866987 0.2524,3.220276 0.004,2.000911 -0.0839,3.63802 -0.19617,3.63802 -0.11232,0 -0.2259,-1.449125 -0.25239,-3.220275 z m 27.006238,0.959906 c -0.24614,-0.641419 0.0973,-0.757214 0.42573,-0.143542 0.20479,0.382638 0.20881,0.551828 0.0131,0.551828 -0.15521,0 -0.3527,-0.183729 -0.43887,-0.408286 z m -50.097558,-1.869782 c 0,-0.548163 1.59114,-3.542765 1.8824,-3.542765 0.25287,0 0.0326,0.606533 -0.93668,2.579687 -0.70986,1.444991 -0.94572,1.685177 -0.94572,0.963078 z m 29.280558,-2.396238 c -0.097,-0.09701 -0.17639,-0.597075 -0.17639,-1.11125 0,-1.098674 0.38419,-0.833557 0.61986,0.427744 0.15021,0.803968 -0.036,1.090975 -0.44347,0.683506 z m 1.80383,-1.165447 c -0.25127,-1.144048 -0.01,-1.226386 0.33194,-0.113147 0.15628,0.509199 0.18569,0.925817 0.0653,0.925817 -0.12034,0 -0.29912,-0.365702 -0.39729,-0.81267 z m -8.925528,0.395348 c -0.10914,-0.110022 -0.19844,-0.487773 -0.19844,-0.839449 0,-0.814824 -0.59083,-0.654351 -0.80283,0.218054 -0.15552,0.64 -0.15652,0.63968 -0.34942,-0.11107 -0.1064,-0.414102 -0.083,-0.890352 0.052,-1.058333 0.13499,-0.167981 0.33246,-0.72214 0.43882,-1.231463 0.10637,-0.509323 0.30896,-1.069655 0.45021,-1.245182 0.14124,-0.175525 0.19488,-0.419336 0.11919,-0.541798 -0.0757,-0.122463 -0.0185,-0.395571 0.127,-0.606904 0.18098,-0.262808 0.21515,0.284689 0.10813,1.732425 -0.14471,1.957438 -0.12682,2.066907 0.23773,1.455209 l 0.3942,-0.661459 -0.0219,0.79375 c -0.0331,1.196533 -0.33081,2.321857 -0.55464,2.09622 z m 28.113618,-0.839449 c -0.31388,-0.545703 -0.68302,-1.170781 -0.82031,-1.389062 -0.46952,-0.746482 -0.98881,-1.984259 -0.87876,-2.094619 0.15001,-0.150442 0.13697,-0.170275 1.50841,2.293056 0.66839,1.200547 1.11313,2.182813 0.9883,2.182813 -0.12483,0 -0.48377,-0.446485 -0.79764,-0.992188 z m -20.45122,-1.389062 c -0.0761,-0.291042 -0.0305,-0.529167 0.10143,-0.529167 0.1319,0 0.23981,0.238125 0.23981,0.529167 0,0.291041 -0.0456,0.529166 -0.10143,0.529166 -0.0558,0 -0.1637,-0.238125 -0.23981,-0.529166 z m 23.18562,-0.529167 c -0.25789,-0.436562 -0.55922,-0.79375 -0.66963,-0.79375 -0.1104,0 -0.39891,-0.386953 -0.64112,-0.859896 -0.24221,-0.472942 -0.9558,-1.540772 -1.58574,-2.372955 -1.59301,-2.104427 -2.53916,-3.646315 -2.23749,-3.646315 0.14,0 0.81612,0.803671 1.50251,1.785937 0.68638,0.982266 1.92227,2.738437 2.74642,3.902604 1.85705,2.623201 1.94734,2.778125 1.61917,2.778125 -0.14589,0 -0.47624,-0.357187 -0.73412,-0.79375 z M -122.7619,35.22314 c 1.00592,-2.247276 1.60705,-3.359975 1.81895,-3.366929 0.37576,-0.01233 0.19553,0.540197 -0.86285,2.645199 -1.17614,2.339228 -1.93732,2.913819 -0.9561,0.72173 z m -13.58117,0.949801 c -0.0118,-0.305602 2.00296,-3.000322 2.24325,-3.000322 0.0694,0 0.12614,0.152088 0.12614,0.337974 0,0.430331 -2.35346,3.074781 -2.36939,2.662348 z m 38.617308,-1.192337 c 0,-0.751856 0.0565,-1.310526 0.12553,-1.241483 0.23794,0.237943 0.33193,2.608498 0.10342,2.608498 -0.12592,0 -0.22895,-0.615156 -0.22895,-1.367015 z m -6.085418,0.689941 c 0,-0.22687 0.12101,-0.337704 0.2689,-0.246301 0.1479,0.0914 0.2004,0.277024 0.11668,0.412491 -0.22681,0.366988 -0.38558,0.298559 -0.38558,-0.16619 z m -28.35961,-2.504921 c 0.29777,-0.804929 2.69598,-3.432588 3.13286,-3.432588 0.37836,0 1.51661,-1.080011 1.94497,-1.84545 0.12284,-0.219504 0.30328,-0.319162 0.40098,-0.221459 0.16602,0.166013 -0.74583,1.60637 -1.97849,3.125242 -0.42567,0.524513 -0.58551,0.586547 -0.77203,0.299638 -0.17709,-0.272417 -0.50652,0.0054 -1.33321,1.124479 -1.10617,1.49737 -1.76299,1.944709 -1.39508,0.950138 z m -13.31226,-1.038109 c 0,-0.823516 0.40082,-1.399156 1.03951,-1.492896 0.21087,-0.03095 0.81063,-0.382132 1.33279,-0.780407 0.52217,-0.398274 1.03111,-0.642413 1.131,-0.542533 0.17879,0.178792 -1.63877,2.008135 -1.99667,2.009619 -0.10104,4.18e-4 -0.42184,0.357261 -0.71288,0.792988 -0.66203,0.991142 -0.79375,0.993338 -0.79375,0.01323 z m 36.57676,0.09513 c -0.0965,-0.0965 -0.002,-0.511633 0.21087,-0.922518 0.21248,-0.410887 0.38633,-1.05446 0.38633,-1.430163 0,-0.375703 0.18716,-1.125754 0.41592,-1.666785 0.22876,-0.541028 0.49665,-1.688343 0.59531,-2.549588 0.0987,-0.861243 0.30558,-1.607759 0.4598,-1.658922 0.1736,-0.05759 0.0901,0.790803 -0.21911,2.227358 -0.27474,1.27621 -0.60065,2.876709 -0.72425,3.556667 -0.25294,1.391525 -0.85948,2.709333 -1.12487,2.443951 z m -31.1528,-0.710991 c 0,-0.429147 1.09293,-1.514039 1.52526,-1.514039 0.16529,0 0.39574,-0.161213 0.51211,-0.358251 0.26403,-0.44704 1.40221,-1.063355 1.40221,-0.759283 0,0.36031 -0.95793,1.287619 -2.24468,2.172925 -0.79074,0.544042 -1.1949,0.699175 -1.1949,0.458648 z m 41.840148,-0.323414 c -0.0353,-0.145521 -0.12828,-0.978958 -0.20675,-1.852083 -0.10693,-1.189842 -0.0667,-1.514314 0.16069,-1.295334 0.18479,0.177964 0.2656,0.901909 0.20675,1.852083 -0.0531,0.857954 -0.12545,1.440855 -0.16069,1.295334 z m -36.151608,-0.661458 c 0.0899,-0.145521 0.21602,-0.264583 0.2802,-0.264583 0.0642,0 0.11667,0.119062 0.11667,0.264583 0,0.145521 -0.12609,0.264583 -0.28019,0.264583 -0.15411,0 -0.20662,-0.119062 -0.11668,-0.264583 z m 65.874288,-1.448245 c -1.13729,-1.137285 -1.45797,-1.726755 -0.93938,-1.726755 0.3669,0 1.79199,1.260623 2.4164,2.137524 0.89437,1.25603 -0.0817,0.984588 -1.47702,-0.410769 z m -32.648188,0.500155 c 0.0127,-0.308226 0.0754,-0.370919 0.15985,-0.159853 0.0764,0.190995 0.067,0.419201 -0.0209,0.507119 -0.0879,0.08792 -0.15045,-0.06835 -0.13896,-0.347266 z m -30.18339,-1.098258 c 0,-0.151953 0.23416,-0.557358 0.52036,-0.900904 0.39543,-0.474657 0.52248,-0.523301 0.52917,-0.20261 0.005,0.232108 -0.22932,0.637514 -0.52037,0.900904 -0.29104,0.26339 -0.52916,0.354562 -0.52916,0.20261 z m 12.7,-0.235456 c 0,-0.09083 0.40104,-1.073092 0.89121,-2.182812 0.49017,-1.109721 0.96268,-2.226035 1.05003,-2.480696 0.0874,-0.254662 0.34817,-0.463021 0.57961,-0.463021 0.23144,0 0.37741,0.0893 0.32439,0.198437 -0.053,0.109141 -0.62559,1.298927 -1.27238,2.643968 -1.00973,2.099789 -1.57286,2.917576 -1.57286,2.284124 z m 13.49375,-0.716806 c 0,-0.388057 0.0992,-0.705557 0.22036,-0.705557 0.2577,0 0.22747,0.963282 -0.0386,1.229334 -0.1,0.09998 -0.18178,-0.135724 -0.18178,-0.523777 z m 24.298468,-0.499917 c -0.8731,-1.171633 -1.85488,-2.893677 -1.72424,-3.024312 0.12598,-0.125981 1.15607,1.222888 2.01162,2.634152 0.77036,1.270741 0.57076,1.541724 -0.28738,0.39016 z m -16.72477,-0.238713 c -0.23842,-1.192072 -0.20329,-2.61276 0.0646,-2.61276 0.24482,0 0.55604,1.504812 0.56087,2.711979 0.004,0.98924 -0.42127,0.921785 -0.62547,-0.09922 z m 14.31231,-0.0044 c -0.25921,-0.45535 -0.42279,-0.8764 -0.36353,-0.935664 0.0593,-0.05926 0.35662,0.31405 0.6608,0.829585 0.30417,0.515538 0.46776,0.936585 0.36352,0.935667 -0.10423,-7.94e-4 -0.40159,-0.374234 -0.66079,-0.829588 z m -37.713328,-1.042797 c -0.23597,-0.37784 -0.2306,-0.459245 0.0239,-0.361603 0.18061,0.0693 0.6237,-0.351819 0.98463,-0.935831 0.57939,-0.937469 1.0605,-1.351283 1.0605,-0.912157 0,0.280612 -0.60652,1.30401 -1.18612,2.001364 -0.54576,0.656646 -0.59549,0.668375 -0.88286,0.208227 z m -15.32737,-0.368813 c -0.74025,-0.328091 -0.75135,-0.565414 -0.0441,-0.943901 0.43895,-0.234915 0.65318,-0.202671 1.0521,0.158343 0.4744,0.429326 0.46492,1.07656 -0.0115,0.782145 -0.12303,-0.07604 -0.26363,-0.04701 -0.31244,0.0645 -0.0488,0.111519 -0.35664,0.08403 -0.68406,-0.06109 z m 63.169268,-1.064413 c -0.49365,-0.509323 -0.74877,-0.926042 -0.56693,-0.926042 0.38346,0 2.15441,1.35931 2.15442,1.653646 2e-5,0.475014 -0.75909,0.127087 -1.58749,-0.727604 z m -23.66952,-0.05163 c -0.0979,-0.390189 -0.3465,-0.835851 -0.55238,-0.990359 -0.25258,-0.189558 -0.42895,-1.098429 -0.54227,-2.794469 -0.0924,-1.382447 -0.26884,-2.705888 -0.39215,-2.940978 -0.12331,-0.235088 -0.35789,-1.544775 -0.52128,-2.910417 -0.16338,-1.365639 -0.40589,-2.596089 -0.5389,-2.734333 -0.13301,-0.138245 -0.24183,-0.937729 -0.24183,-1.77663 0,-1.7203581 -0.34805,-2.0901133 -1.719788,-1.8270593 -0.71725,0.1375436 -0.86016,0.3473609 -1.48279,2.1769103 -1.1363,3.338972 -1.28987,4.131415 -0.86843,4.481181 0.53794,0.446456 0.44712,0.829964 -0.15157,0.639951 -0.47981,-0.152287 -0.50693,-0.06763 -0.36425,1.13702 0.0989,0.834932 0.0476,1.367409 -0.14305,1.485239 -0.16347,0.101023 -0.29721,0.05759 -0.29721,-0.09652 0,-0.490786 -0.46203,-0.30091 -0.60582,0.248968 -0.0761,0.291041 -0.27805,0.529166 -0.44876,0.529166 -0.36882,0 -0.11617,-1.421349 0.39906,-2.245076 0.18338,-0.293177 0.41279,-1.500622 0.50981,-2.683211 0.097,-1.182587 0.34667,-2.789931 0.55478,-3.571875 0.48172,-1.8098934 0.49945,-2.30377 0.0672,-1.8715043 -0.59788,0.5978895 -1.24375,0.3606324 -1.47651,-0.5423958 -0.15325,-0.5945611 -0.40051,-0.8859838 -0.80131,-0.9444434 -0.31882,-0.046501 -0.57968,0.02004 -0.57968,0.1478676 0,0.1278282 -0.1657,0.4590362 -0.36824,0.7360179 -0.29979,0.4099878 -0.44151,0.4427961 -0.76239,0.1764903 -0.33284,-0.2762302 -0.58381,-0.022807 -1.61338,1.6290503 -0.67057,1.0758914 -1.83079,3.1325874 -2.57827,4.5704334 -1.46552,2.819088 -1.72169,3.199117 -1.9814,2.939405 -0.0928,-0.09282 0.20947,-0.838936 0.67175,-1.658049 0.46228,-0.81911 0.80046,-1.609436 0.75151,-1.756277 -0.049,-0.146841 -0.53825,0.547687 -1.08733,1.543396 -1.21224,2.198267 -1.70567,2.88244 -1.92248,2.665632 -0.22222,-0.222226 2.10301,-4.453456 2.78805,-5.073409 0.30026,-0.271738 0.54593,-0.393631 0.54593,-0.270878 0,0.122756 0.23044,-0.02416 0.51209,-0.326469 0.30583,-0.328266 0.45612,-0.763651 0.37315,-1.08095 -0.1413,-0.540337 0.87267,-2.6394227 1.75279,-3.6285463 0.67167,-0.7548615 1.10297,-1.6657981 0.85985,-1.816055 -0.11425,-0.070609 -0.48592,0.2776247 -0.82594,0.7738533 -0.34002,0.4962287 -0.73207,0.8318685 -0.87123,0.7458684 -0.13915,-0.086003 0.0144,-0.4409943 0.3412,-0.7888684 0.32682,-0.3478768 0.51734,-0.7093717 0.42339,-0.80332 -0.094,-0.093948 -0.38719,0.096398 -0.65165,0.4229973 -0.41382,0.5110401 -0.52557,0.5399193 -0.80173,0.2071767 -0.25721,-0.3099303 -0.21562,-0.5204433 0.20965,-1.061085 0.69299,-0.8810043 0.67513,-1.014894 -0.25421,-1.9052566 -1.08601,-1.0404607 -2.94161,-1.1468602 -4.40192,-0.2524045 -1.47211,0.9016841 -3.85254,2.0083911 -4.00086,1.860071 -0.22243,-0.2224246 0.12341,-0.5452798 1.16195,-1.0847334 0.55776,-0.2897135 1.8182,-1.0933853 2.80099,-1.7859375 0.9828,-0.6925495 1.90255,-1.25918108 2.04391,-1.25918108 0.14441,0 0.18752,-0.3474694 0.0984,-0.79309383 -0.0907,-0.45349847 -0.0257,-0.95322758 0.15176,-1.16706909 0.34452,-0.4151207 -0.046,-0.8395944 -0.50908,-0.5533787 -0.55026,0.3400848 -0.83248,-0.1801151 -0.3731,-0.6877262 0.44458,-0.4912492 0.38766,-0.5028988 -2.45682,-0.5028988 -1.60157,0 -3.25713,-0.1191683 -3.67903,-0.2648214 -0.54137,-0.1868964 -1.37046,-0.1591972 -2.81761,0.094131 -1.12778,0.1974241 -2.05052,0.265086 -2.05052,0.15036 0,-0.2580402 0.35472,-0.3609234 3.15561,-0.9152493 1.22627,-0.242689 2.41689,-0.5395912 2.64584,-0.6597835 0.62555,-0.3284008 2.91716,-0.9757727 4.16584,-1.1768349 0.98937,-0.1593082 1.66688,-0.7630821 1.2849,-1.145061 -0.0755,-0.075547 -1.31994,0.013361 -2.76531,0.1975485 -2.94392,0.3751685 -3.55491,0.2423451 -2.54379,-0.5530004 0.59401,-0.4672488 0.90699,-0.5056134 2.78699,-0.3416167 1.23247,0.1075081 2.11784,0.083995 2.11784,-0.056245 0,-0.2723939 -1.68695,-0.7967372 -3.3793,-1.0503667 -1.25731,-0.1884284 -1.78473,-0.6290601 -0.75297,-0.6290601 0.3638,0 0.74145,-0.1294342 0.83922,-0.2876339 0.0978,-0.158197 0.39808,-0.2300208 0.66735,-0.1596046 0.26927,0.070414 0.6209,-0.030207 0.7814,-0.2236073 0.24224,-0.291872 0.50244,-0.286737 1.53109,0.030213 2.44325,0.7528322 2.35564,0.7579175 2.83256,-0.1643486 0.25868,-0.5002314 0.33765,-0.9202554 0.19104,-1.0160664 -0.13746,-0.08983 -0.391,-0.431218 -0.56343,-0.75864 -0.3782,-0.718179 -0.0823,-0.772636 1.04118,-0.191643 0.76181,0.393949 0.78061,0.388067 0.78061,-0.244281 0,-0.356376 -0.28091,-0.984512 -0.62424,-1.395857 -0.34332,-0.411348 -0.82998,-1.149065 -1.08145,-1.639369 -0.6969,-1.358786 -2.21625,-3.443793 -3.70255,-5.081032 -2.10855,-2.322674 -3.63638,-4.213992 -3.40384,-4.21364 0.34376,5.29e-4 1.55837,1.139687 1.8974,1.77955 0.17172,0.324088 0.55607,0.719754 0.85411,0.879261 0.5271,0.282093 0.52987,0.271655 0.10135,-0.382334 -0.80317,-1.225798 -0.2381,-1.369417 0.60966,-0.154956 1.59976,2.291726 7.38179,8.28299 7.62069,7.89645 0.0825,-0.133509 0.3494,-0.209822 0.59309,-0.169582 0.28793,0.04755 0.61553,-0.279916 0.93562,-0.935228 l 0.49255,-1.008388 -0.73148,-2.005594 c -0.40231,-1.103077 -0.76306,-2.293268 -0.80165,-2.644868 -0.11156,-1.016219 0.73856,-0.637894 1.01103,0.449937 0.12752,0.509101 0.40129,1.05663 0.60839,1.216732 0.20711,0.160102 0.62109,1.082836 0.91998,2.05052 0.41899,1.356524 0.65785,1.759427 1.04307,1.759427 0.64882,0 1.28422,-0.648105 1.50965,-1.539857 0.15138,-0.598831 -0.24324,-7.179095 -0.494,-8.237204 -0.0447,-0.188788 0.0512,-0.392395 0.21321,-0.452461 0.31008,-0.114964 0.63803,1.292897 0.78043,3.350355 0.0453,0.654844 0.27535,1.964531 0.51116,2.910417 0.23582,0.945885 0.51516,2.076979 0.62076,2.513541 0.29054,1.201061 1.262348,1.236282 1.752358,0.06351 0.51634,-1.235761 0.62394,-2.04923 0.64919,-4.907775 0.0139,-1.569487 0.11774,-2.403689 0.28634,-2.299488 0.33628,0.20783 0.35137,6.315482 0.0185,7.476225 -0.15177,0.529166 -0.15177,0.858149 0,0.858149 0.13536,0 0.24611,-0.119062 0.24611,-0.264583 0,-0.145521 0.22522,-0.264583 0.50049,-0.264583 0.70707,0 1.00153,-1.26591 0.39723,-1.707782 -0.24717,-0.180735 -0.36465,-0.465733 -0.26107,-0.633331 0.28058,-0.453969 0.68627,-0.368207 0.68627,0.145071 0,1.012185 0.50832,-0.183028 1.06336,-2.500312 0.32242,-1.346068 0.69131,-2.447396 0.81976,-2.447396 0.47391,0 0.17787,1.542171 -1.13099,5.891569 -0.71946,2.390783 -0.77739,3.104264 -0.25204,3.104264 0.11236,0 0.61134,-0.710835 1.10887,-1.579631 0.49752,-0.868797 0.98,-1.583172 1.07218,-1.5875 0.4342,-0.0204 0.40914,1.545955 -0.0411,2.571819 l -0.49358,1.124479 h 0.89087 c 0.56553,0 1.1795,-0.242877 1.68126,-0.665078 0.43472,-0.365792 1.20962,-0.840237 1.722,-1.054325 0.51238,-0.214085 1.00967,-0.515559 1.10508,-0.669941 0.0954,-0.154382 0.78816,-0.763921 1.53945,-1.354529 0.75128,-0.590605 2.51862,-2.192504 3.92742,-3.55977 1.4088,-1.367269 2.69291,-2.48594 2.85358,-2.48594 0.40823,0 -0.0368,0.776827 -0.99633,1.739177 -0.42465,0.4259 -0.87924,0.976106 -1.01019,1.222679 -0.13095,0.246574 -1.08067,1.377667 -2.11048,2.513542 -1.49933,1.653749 -1.90805,2.289268 -2.05136,3.189706 -0.18823,1.182661 0.0342,1.40889 0.71553,0.727604 0.21828,-0.218282 0.57718,-0.396875 0.79756,-0.396875 0.22039,0 1.12186,-0.667668 2.00328,-1.483707 2.20772,-2.043962 2.02163,-1.422537 -0.24977,0.834057 -2.13005,2.116164 -3.81403,4.067296 -3.65106,4.230266 0.12536,0.125363 4.6047,-1.786207 6.78649,-2.89615 0.77845,-0.396026 1.46875,-0.666665 1.53399,-0.601424 0.18873,0.188735 -2.8868,2.556303 -3.54468,2.728722 -0.32742,0.08581 -0.59531,0.262173 -0.59531,0.391919 0,0.129744 -0.16401,0.2359 -0.36448,0.2359 -0.20046,0 -0.51269,0.178594 -0.69385,0.396875 -0.27817,0.335166 -0.22426,0.396875 0.34665,0.396875 0.44401,0 0.73376,0.181901 0.84424,0.530005 0.18335,0.5776943 0.53119,0.5750061 4.02456,-0.03108 2.53424,-0.439684 2.4759,-0.16211 -0.1098,0.5223805 -2.76116,0.7309379 -4.22383,1.3168047 -3.35298,1.3430249 0.30913,0.00931 1.06824,-0.1616736 1.68691,-0.3799548 1.26445,-0.4461219 1.82763,-0.5148686 1.44198,-0.176022 -0.31649,0.2780823 -1.88066,0.8282119 -5.37235,1.88949 -1.50686,0.4580017 -2.66225,0.9102302 -2.56752,1.0049537 0.0947,0.094723 0.73229,0.3909059 1.41683,0.6581827 0.95993,0.3748088 2.18262,0.50986 5.34565,0.5904468 2.25557,0.057465 3.83315,0.04331 3.50572,-0.031456 -0.95517,-0.2181145 -0.71635,-0.7186559 0.25062,-0.525264 2.00823,0.401648 3.5857,0.4828566 3.76435,0.193794 0.26443,-0.427855 1.10465,-0.364945 1.58853,0.1189408 0.58363,0.5836311 0.51728,0.8520721 -0.17954,0.7263818 -0.32742,-0.059058 -1.54781,0.027511 -2.71198,0.1923785 -1.16416,0.1648672 -3.21465,0.3350154 -4.55664,0.3781081 -1.34199,0.043093 -2.77074,0.176284 -3.175,0.2959788 -0.40426,0.1196949 -1.15174,0.2227368 -1.66106,0.228981 -0.82421,0.010107 -0.91805,0.082822 -0.85335,0.6612493 0.04,0.3574388 0.21858,0.742569 0.39688,0.8558424 0.28752,0.182663 2.45589,0.3402198 3.28078,0.2383869 0.17093,-0.021087 0.38632,0.083854 0.47864,0.2332355 0.10977,0.1776069 -0.61043,0.27160011 -2.0811,0.27160011 -2.32307,0 -2.83045,0.20569237 -2.16033,0.87580786 0.41891,0.41891745 3.10814,0.97098375 4.79661,0.98468915 0.57016,0.00463 1.26776,0.18321338 1.55022,0.39685648 0.35433,0.2680017 0.56877,0.2991141 0.69162,0.1003432 0.304,-0.49187628 3.11746,6.88e-5 3.72832,0.6519095 l 0.52691,0.5622687 -0.57424,0.088067 c -0.31584,0.048437 -1.36584,-0.094393 -2.33334,-0.3173968 -0.96749,-0.2230041 -3.00924,-0.5432902 -4.53721,-0.7117477 -1.52797,-0.1684576 -3.4925,-0.4703524 -4.36562,-0.6708801 -2.74904,-0.63136198 -2.97528,-0.46266628 -1.98438,1.4796663 0.57335,1.1238548 0.65289,1.776185 0.28702,2.3540111 -0.18672,0.2948887 -0.45341,0.313952 -1.31887,0.094279 -1.28372,-0.3258449 -1.39766,-0.1013486 -0.2828,0.5572151 0.71104,0.4200208 0.78322,0.5739739 0.63628,1.3571961 -0.16004,0.853133 -0.0367,1.0116767 3.59614,4.6219331 2.06904,2.056174 3.71747,3.782411 3.6632,3.836085 -0.14525,0.14365 -6.35512,-5.3578744 -8.97588,-7.9520184 -1.24444,-1.2318021 -2.33327,-2.1689879 -2.41963,-2.0826332 -0.0864,0.086355 0.14477,0.4770807 0.51362,0.8682831 0.9462,1.0035645 3.24259,4.5557685 3.24259,5.0158575 0,0.307668 -1.13328,-0.903917 -1.48909,-1.5919794 -0.20712,-0.4005268 -0.49259,-0.7282291 -0.63437,-0.7282291 -0.39624,0 -0.30567,0.6892241 0.13908,1.0583331 0.21828,0.1811584 0.39688,0.7362624 0.39688,1.2335624 0,1.059677 0.77528,2.702758 1.97722,4.190397 0.4703,0.582083 1.06518,1.475052 1.32197,1.984375 0.25678,0.509322 0.71183,1.193932 1.01121,1.521354 0.29939,0.327422 0.43429,0.591526 0.29978,0.586898 -0.37089,-0.01276 -1.1706,-0.676746 -1.1706,-0.971936 0,-0.143303 -0.23812,-0.476051 -0.52916,-0.739441 -0.29105,-0.263391 -0.52917,-0.626439 -0.52917,-0.806776 0,-0.180337 -0.3766,-0.727432 -0.83688,-1.215763 -0.46028,-0.488333 -1.52886,-1.840378 -2.37462,-3.004545 -2.56325,-3.5282533 -2.79644,-3.726122 -2.4945,-2.116666 0.13766,0.733774 0.0888,0.926041 -0.23514,0.926041 -0.22487,0 -0.40886,-0.156982 -0.40886,-0.348853 0,-0.191868 -0.18321,-0.965774 -0.40713,-1.7197914 -0.73366,-2.4705051 -1.65427,-1.4907953 -1.85587,1.9750164 -0.10369,1.782466 -0.27368,2.513568 -0.78879,3.392549 -0.63859,1.089659 -0.64513,1.152403 -0.23809,2.284195 0.29531,0.821105 0.3703,1.608741 0.25471,2.675049 -0.11691,1.078465 -0.0532,1.72517 0.22236,2.258099 0.52927,1.023496 0.80295,2.61566 0.48354,2.813066 -0.14306,0.08842 -0.34024,-0.158483 -0.43817,-0.548669 z m 5.56505,-16.4249815 c -0.45713,-0.4366207 -0.46423,-0.4295246 -0.16125,0.1612529 0.17431,0.3398838 0.38949,0.5454095 0.47818,0.4567211 0.0887,-0.088688 -0.0539,-0.366776 -0.31693,-0.617974 z m 1.68818,-1.6700076 c -0.16243,-0.3035036 -0.36218,-0.484976 -0.44389,-0.4032674 -0.0817,0.081706 0.002,0.330028 0.18612,0.5518256 0.47568,0.573151 0.60433,0.4990015 0.25777,-0.1485582 z M -114.92368,-9.1606715 c -0.51815,-0.3348567 -0.86841,-0.3348567 -0.66145,0 0.0899,0.1455208 0.36485,0.2627603 0.61092,0.2605325 0.38557,-0.00349 0.39256,-0.0395 0.0505,-0.2605325 z m 29.252038,-0.9338205 c 0.49736,-0.391864 0.49334,-0.402317 -0.12714,-0.330729 -0.35241,0.04066 -0.68975,0.222753 -0.74966,0.404654 -0.14821,0.4500559 0.25489,0.4160702 0.8768,-0.07393 z m -2.65053,-0.671282 c 0.28476,-0.460756 -0.0396,-0.558334 -0.40245,-0.121084 -0.20869,0.251457 -0.22876,0.40327 -0.0533,0.40327 0.15475,0 0.35985,-0.126984 0.45577,-0.282186 z m 0.51829,-3.157397 c 0.0899,-0.145521 0.0374,-0.264583 -0.11668,-0.264583 -0.15411,0 -0.2802,0.119062 -0.2802,0.264583 0,0.145521 0.0525,0.264583 0.11668,0.264583 0.0642,0 0.19026,-0.119062 0.2802,-0.264583 z m -33.337498,36.512499 c 0.0899,-0.145521 0.21602,-0.264583 0.28019,-0.264583 0.0642,0 0.11668,0.119062 0.11668,0.264583 0,0.145521 -0.12609,0.264583 -0.2802,0.264583 -0.15411,0 -0.20661,-0.119062 -0.11667,-0.264583 z m 43.788538,-2.910417 c -0.81109,-0.81109 -0.62842,-1.147553 0.26458,-0.48733 0.43656,0.322765 0.79375,0.683516 0.79375,0.801671 0,0.381699 -0.51536,0.228629 -1.05833,-0.314341 z m -42.793208,-0.976439 c 0.246,-0.245999 0.53596,-0.358587 0.64435,-0.250195 0.10839,0.108389 0.0219,0.30784 -0.19214,0.443219 -0.64414,0.407371 -0.93041,0.285181 -0.45221,-0.193024 z m 50.862998,-2.157121 c -1.57537,-0.907725 -1.98437,-1.232996 -1.98437,-1.578121 0,-0.242197 0.1846,-0.294 0.59531,-0.167047 0.95479,0.295129 3.21003,1.610397 3.31832,1.935263 0.14892,0.446749 -1.0247,0.33111 -1.92926,-0.190095 z m -48.881698,-2.129809 c -0.50635,-0.51344 -0.37153,-0.822047 0.35914,-0.822047 0.58242,0 0.81739,0.35007 0.60553,0.902166 -0.20201,0.526409 -0.38118,0.511529 -0.96467,-0.08012 z m 24.319548,-0.46927 c -0.097,-0.09701 -0.17639,-0.299419 -0.17639,-0.449792 0,-0.165788 0.12323,-0.150167 0.31309,0.03969 0.1722,0.172201 0.25157,0.374607 0.17639,0.449791 -0.0752,0.07519 -0.21608,0.05733 -0.31309,-0.03969 z m 17.35225,-2.09468 c -1.27284,-1.003157 -1.04356,-1.208257 0.4608,-0.412186 0.72638,0.384384 1.32169,0.788178 1.32292,0.897318 0.005,0.424135 -0.96448,0.160526 -1.78372,-0.485132 z M -130.89388,11.55801 c -0.26793,-0.26793 0.38211,-0.874932 0.93697,-0.874932 0.28181,0 0.43919,0.118423 0.34974,0.26316 -0.24324,0.393565 -1.09835,0.800132 -1.28671,0.611772 z m 3.9553,-2.3301403 c 0.13193,-0.5256371 0.0651,-0.6639983 -0.32568,-0.6738329 -0.27044,-0.0068 0.1036,-0.2411095 0.83121,-0.5206709 0.7276,-0.2795587 1.64885,-0.6965606 2.0472,-0.9266661 0.66874,-0.386281 0.71132,-0.3845718 0.5552,0.022278 -0.14679,0.3825292 -0.091,0.3988673 0.42285,0.1238541 0.85101,-0.4554485 1.05573,-0.065125 0.27809,0.5302329 -0.70977,0.5434012 -3.53566,2.1062628 -3.80844,2.1062628 -0.0915,0 -0.0917,-0.297656 -4.2e-4,-0.6614579 z m 1.69615,-1.0583333 c 0.18986,-0.2287561 0.21557,-0.396875 0.0607,-0.396875 -0.14777,0 -0.33721,0.1785937 -0.42097,0.396875 -0.0838,0.2182812 -0.11108,0.396875 -0.0607,0.396875 0.0504,0 0.23981,-0.1785938 0.42096,-0.396875 z m 43.316028,0.2423662 c -0.69645,-0.3624712 -1.19304,-0.777531 -1.10353,-0.9223533 0.16005,-0.2589742 1.68035,0.5033883 2.49264,1.2499525 0.58747,0.5399328 0.0211,0.4063735 -1.38911,-0.3275992 z M -122.59659,5.9298861 c 0,-0.1404011 0.26789,-0.3958484 0.59531,-0.5676661 0.59212,-0.3107161 0.59261,-0.3093482 0.0913,0.2552752 -0.55994,0.630645 -0.68659,0.6882686 -0.68659,0.3123909 z m 36.504778,-0.1509077 c -0.45946,-0.5536115 -0.0763,-0.8495612 0.43628,-0.3369786 0.24744,0.2474356 0.31063,0.481068 0.15597,0.5766514 -0.14299,0.088376 -0.40951,-0.019473 -0.59225,-0.2396728 z m 19.71918,0.1333235 c -0.29104,-0.1303761 -1.03518,-0.3650297 -1.65365,-0.5214567 -0.88314,-0.2233718 -1.12448,-0.4056935 -1.12448,-0.849503 V 3.9762111 l 0.59532,0.5303361 c 0.62203,0.554146 2.35881,1.1494056 3.3536,1.1494056 0.31944,0 0.50673,0.1189169 0.41671,0.2645833 -0.19686,0.3185266 -0.86575,0.3150394 -1.5875,-0.00828 z m -19.52004,-2.3228934 c -0.39632,-0.2404745 -0.72059,-0.5249757 -0.72059,-0.6322245 0,-0.2319047 0.73288,0.010663 1.4085,0.4661931 0.75051,0.506021 0.12231,0.6576431 -0.68791,0.1660314 z m 15.33622,-0.8740934 c -0.48752,-0.5001339 -0.6121,-0.7634869 -0.36116,-0.7634869 0.35127,0 1.39384,1.265674 1.19268,1.4479005 -0.048,0.04349 -0.42219,-0.264496 -0.83152,-0.6844136 z m -64.210978,-3.31341135 c 0,-0.25086204 0.36209,-0.36049214 1.19063,-0.36049214 1.12246,0 1.72473,0.37407585 0.7276,0.45192155 -0.25466,0.0198967 -0.79044,0.088556 -1.19062,0.15260637 -0.49472,0.0791792 -0.72761,0.001058 -0.72761,-0.24403578 z m 4.49792,-0.87946175 c 0,-0.3371109 2.04564,-0.8790728 2.42744,-0.6431095 0.47961,0.2964154 -0.55979,0.8974958 -1.55197,0.8974958 -0.48151,0 -0.87547,-0.1144746 -0.87547,-0.2543863 z m 1.91537,-8.528931 c -1.63571,-0.298235 -1.6334,-0.747548 0.003,-0.56779 1.80821,0.198644 2.34711,0.353935 2.17797,0.6276151 -0.18009,0.2913909 -0.2678,0.2889858 -2.18088,-0.059825 z m 2.97942,0.052067 c -0.0951,-0.153932 0.16844,-0.264583 0.63023,-0.264583 0.43656,0 0.86734,0.119062 0.95727,0.264583 0.0951,0.1539319 -0.16843,0.2645833 -0.63023,0.2645833 -0.43656,0 -0.86733,-0.1190625 -0.95727,-0.2645833 z m -9.12812,-1.058332 c -0.21828,-0.141066 -0.83634,-0.258305 -1.37345,-0.260533 -0.96386,-0.004 -1.43821,-0.315444 -1.16174,-0.762778 0.17143,-0.277376 2.79535,0.163362 3.25988,0.547558 0.1803,0.149119 0.26257,0.376701 0.18282,0.505733 -0.18459,0.298676 -0.4105,0.291212 -0.90751,-0.02998 z m 56.091668,-4.043035 c 0,-0.186378 0.32742,-0.484359 0.7276,-0.662183 0.40018,-0.177824 1.38245,-0.73302 2.18281,-1.233773 0.80037,-0.500753 1.66357,-1.040397 1.91823,-1.199211 0.3508,-0.218763 0.4612,-0.206333 0.45552,0.05129 -0.006,0.28956 -1.51811,1.372142 -3.48013,2.492205 -0.28912,0.16505 -0.65852,0.43294 -0.82089,0.595313 -0.39957,0.399565 -0.98314,0.37366 -0.98314,-0.04364 z m -8.57021,-4.641686 c -0.0933,-0.151 -0.0408,-0.354229 0.11683,-0.451617 0.39319,-0.243009 0.53239,-0.04974 0.26998,0.374851 -0.14059,0.22747 -0.27694,0.254532 -0.38681,0.07677 z m -5.71729,-0.212955 c 0,-0.339468 1.36142,-3.926792 1.5988,-4.21282 0.34214,-0.41226 1.08212,-2.48185 1.20228,-3.362566 0.0548,-0.401693 0.33033,-1.175599 0.61229,-1.719791 1.64148,-3.168159 2.13164,-4.199234 2.13695,-4.495168 0.003,-0.181901 0.13445,-0.330729 0.29153,-0.330729 0.51215,0 -0.0298,1.633389 -1.3715,4.133789 -0.71244,1.327699 -1.29535,2.607845 -1.29535,2.844768 0,1.139368 -2.44417,7.308943 -2.89554,7.308943 -0.15371,0 -0.27946,-0.07489 -0.27946,-0.166426 z m 2.75718,-0.505809 c 0.32878,-1.309949 1.24984,-3.553523 1.5299,-3.726609 0.44729,-0.276441 0.0309,1.478532 -0.72025,3.035565 -0.70507,1.461537 -1.08426,1.785178 -0.80965,0.691044 z m 22.7865,-0.103092 c -0.19239,-0.311277 0.32596,-0.692052 1.80532,-1.326179 2.35799,-1.010751 2.67158,-0.343461 0.34469,0.73347 -1.57873,0.730668 -1.994,0.845148 -2.15001,0.592709 z m -18.39993,-1.028745 c 0,-0.319762 0.50196,-0.692571 0.68545,-0.509085 0.0666,0.0666 -0.0604,0.27169 -0.28218,0.455766 -0.25146,0.20869 -0.40327,0.228764 -0.40327,0.05332 z m -8.57672,-0.541192 c -0.0777,-0.12573 0.0861,-0.699304 0.36409,-1.274607 0.27796,-0.575304 0.58582,-1.36653 0.68414,-1.758277 0.15253,-0.607719 0.64932,-1.271884 0.64932,-0.868085 0,0.390747 -0.79587,3.109981 -1.04826,3.58158 -0.3231,0.603705 -0.43849,0.660468 -0.64929,0.319389 z m -14.367758,-0.631299 c -0.1403,-0.181901 -0.4656,-0.86651 -0.72289,-1.521354 -0.25728,-0.654843 -0.52699,-1.339453 -0.59935,-1.521354 -0.0724,-0.181901 -0.0111,-0.330729 0.13607,-0.330729 0.32462,0 1.90564,2.74057 1.90564,3.303283 0,0.486108 -0.37075,0.522258 -0.71947,0.07015 z m 47.142968,-0.480623 c -0.0959,-0.155202 -0.11765,-0.338931 -0.0483,-0.408287 0.0693,-0.06935 0.1966,0.05763 0.28278,0.282186 0.1789,0.466225 0.0264,0.548233 -0.23448,0.126101 z m -18.11308,-2.052804 c 0,-0.334471 5.04573,-5.142897 5.21699,-4.971635 0.14503,0.14503 -2.19173,2.957444 -3.70476,4.458877 -0.70521,0.69981 -1.51223,0.973448 -1.51223,0.512758 z m -42.821078,-2.673416 c -1.50138,-1.780543 -1.3842,-1.998744 0.22316,-0.415552 0.72761,0.716663 1.32292,1.396796 1.32292,1.511408 0,0.490612 -0.51786,0.123555 -1.54608,-1.095856 z m 31.056788,0.201885 c 0.1012,-0.460776 0.29332,-0.966792 0.42693,-1.124481 0.1336,-0.157688 0.41366,-0.524831 0.62235,-0.815873 l 0.37943,-0.529167 0.009,0.529167 c 0.0107,0.61777 -1.07952,2.778125 -1.40195,2.778125 -0.12096,0 -0.13712,-0.376997 -0.0359,-0.837771 z m -19.702088,-0.57194 c -0.15599,-0.155992 -0.28362,-0.567641 -0.28362,-0.914776 0,-0.347134 -0.41672,-1.477035 -0.92604,-2.51089 -0.91215,-1.851533 -1.11775,-2.577319 -0.7276,-2.568441 0.18031,0.0041 0.79335,1.348273 1.66023,3.640259 0.26147,0.691302 0.43448,0.832789 0.85509,0.699291 0.55174,-0.175117 0.98073,0.237884 0.98429,0.947601 0.003,0.545727 -1.18578,1.083525 -1.56235,0.706956 z m 11.551198,-1.924915 c -0.17654,-0.176543 0.002,-4.754125 0.22836,-5.870466 0.0678,-0.333373 0.23655,-0.536058 0.37513,-0.450411 0.15007,0.09275 0.18944,1.300827 0.0974,2.987383 -0.15069,2.759782 -0.34592,3.688411 -0.70084,3.333494 z m 25.47143,-0.377409 c 0,-0.357986 2.58008,-2.902548 2.94306,-2.902548 0.28221,0 -0.0328,0.502814 -1.11179,1.774538 -0.79756,0.940028 -1.83127,1.576767 -1.83127,1.12801 z m -51.196868,-0.785882 c -0.26501,-0.292826 -0.4223,-0.591942 -0.34954,-0.664702 0.0728,-0.07276 0.34912,0.107293 0.61412,0.400119 0.265,0.292826 0.42229,0.591942 0.34953,0.664703 -0.0728,0.07276 -0.34911,-0.107294 -0.61411,-0.40012 z m 35.651728,-0.330729 c 0.067,-0.181901 0.39216,-1.164166 0.72251,-2.182812 0.69435,-2.141106 1.17865,-2.855382 0.98667,-1.455208 -0.17738,1.293737 -1.22696,3.968749 -1.55719,3.968749 -0.15063,0 -0.21903,-0.148828 -0.15199,-0.330729 z m -1.65277,-0.298417 c 0,-0.20051 0.16596,-0.766056 0.36881,-1.256771 0.20285,-0.490714 0.55775,-2.001205 0.78867,-3.356647 0.23092,-1.355442 0.4887,-2.575833 0.57284,-2.71198 0.34157,-0.552669 0.62842,-0.19376 0.48942,0.612357 -0.39034,2.263663 -1.14591,5.697477 -1.39723,6.35 -0.29253,0.759475 -0.82251,0.993402 -0.82251,0.363041 z m -37.910348,-4.440594 c -0.69605,-1.038976 -1.22395,-2.013833 -1.17311,-2.16635 0.11458,-0.34375 2.83554,3.210259 2.83554,3.703673 0,0.706888 -0.41773,0.320592 -1.66243,-1.537323 z m 43.202008,0.827611 c 0,-0.488094 1.32417,-2.90162 1.59196,-2.90162 0.35229,0 0.35267,-0.0015 -0.42073,1.687818 -0.61629,1.346163 -1.17123,1.92127 -1.17123,1.213802 z m 16.93334,-0.246478 c 0,-0.140401 0.25617,-0.392377 0.56928,-0.559947 0.49152,-0.263052 0.54573,-0.243296 0.39688,0.144623 -0.0948,0.247111 -0.17241,0.499088 -0.17241,0.559946 0,0.06086 -0.1786,0.110652 -0.39688,0.110652 -0.21828,0 -0.39687,-0.114873 -0.39687,-0.255274 z m 2.38125,-2.463793 c 0,-0.473929 1.81471,-2.433579 2.04258,-2.205714 0.19606,0.196062 -1.30807,2.34279 -1.74311,2.487804 -0.16471,0.0549 -0.29947,-0.07204 -0.29947,-0.28209 z m 3.78788,-3.794388 c -0.0884,-0.230515 -0.0181,-0.507309 0.15628,-0.615099 0.17441,-0.107789 0.28105,-0.35271 0.23699,-0.544268 -0.0441,-0.191557 0.25342,-0.537834 0.66106,-0.769503 0.68809,-0.391046 0.76032,-0.387653 1.00845,0.04737 0.147,0.257722 0.37902,0.399524 0.5156,0.315115 0.65453,-0.404524 0.14361,0.422809 -0.61158,0.990312 -1.21882,0.915921 -1.77399,1.078528 -1.9668,0.576073 z m -36.43547,-1.864565 c -0.21085,-0.663145 0.0506,-1.94073 0.3971,-1.94073 0.28461,0 0.2795,1.24852 -0.008,1.984375 -0.20233,0.517618 -0.21082,0.516665 -0.38897,-0.04365 z m -17.623248,-1.676146 c -0.31929,-0.206342 -0.27745,-0.257273 0.21405,-0.260532 0.34067,-0.0022 0.53859,0.112993 0.44741,0.260532 -0.19664,0.318161 -0.16914,0.318161 -0.66146,0 z m 29.916518,-0.579698 c 0.0102,-0.190489 0.12092,-0.584469 0.24598,-0.875511 0.20304,-0.472501 0.22939,-0.452924 0.24599,0.182823 0.0102,0.391594 -0.10047,0.785574 -0.24599,0.875511 -0.14552,0.08994 -0.25621,0.0077 -0.24598,-0.182823 z m -30.798458,-1.184191 c -0.097,-0.09701 -0.17261,-0.424436 -0.16798,-0.727604 0.008,-0.541563 0.0152,-0.542222 0.39688,-0.03763 0.21365,0.282475 0.38846,0.609897 0.38846,0.727604 0,0.258867 -0.37337,0.281621 -0.61736,0.03763 z"
       id="path69"
       inkscape:connector-curvature="0" />
  </g>
</svg>
